<svg width="40" height="40" viewBox="0 0 40 40" fill="none" xmlns="http://www.w3.org/2000/svg">
<path fill-rule="evenodd" clip-rule="evenodd" d="M14.6328 11.6148C14.5167 11.4984 14.3787 11.406 14.2268 11.343C14.075 11.28 13.9122 11.2476 13.7478 11.2476C13.5833 11.2476 13.4205 11.28 13.2687 11.343C13.1168 11.406 12.9789 11.4984 12.8628 11.6148L5.36277 19.1148C5.24636 19.2309 5.154 19.3688 5.09099 19.5207C5.02797 19.6726 4.99553 19.8354 4.99553 19.9998C4.99553 20.1642 5.02797 20.327 5.09099 20.4789C5.154 20.6307 5.24636 20.7687 5.36277 20.8848L12.8628 28.3848C13.0975 28.6195 13.4158 28.7514 13.7478 28.7514C14.0797 28.7514 14.398 28.6195 14.6328 28.3848C14.8675 28.1501 14.9993 27.8317 14.9993 27.4998C14.9993 27.1679 14.8675 26.8495 14.6328 26.6148L8.01527 19.9998L14.6328 13.3848C14.7492 13.2687 14.8415 13.1307 14.9045 12.9789C14.9676 12.827 15 12.6642 15 12.4998C15 12.3354 14.9676 12.1726 14.9045 12.0207C14.8415 11.8688 14.7492 11.7309 14.6328 11.6148Z" fill="#0D4D66"/>
<path fill-rule="evenodd" clip-rule="evenodd" d="M35 20C35 19.6685 34.8683 19.3505 34.6339 19.1161C34.3995 18.8817 34.0815 18.75 33.75 18.75H7.5C7.16848 18.75 6.85054 18.8817 6.61612 19.1161C6.38169 19.3505 6.25 19.6685 6.25 20C6.25 20.3315 6.38169 20.6495 6.61612 20.8839C6.85054 21.1183 7.16848 21.25 7.5 21.25H33.75C34.0815 21.25 34.3995 21.1183 34.6339 20.8839C34.8683 20.6495 35 20.3315 35 20Z" fill="#0D4D66"/>
</svg>
