<svg xmlns="http://www.w3.org/2000/svg" width="40" height="40" fill="none" viewBox="0 0 40 40">
    <path fill="#0D4D66" fill-rule="evenodd" d="M25.367 11.615c.116-.117.254-.209.406-.272.152-.063.315-.095.48-.095.164 0 .326.032.478.095.152.063.29.155.406.272l7.5 7.5c.117.116.209.254.272.406.063.152.096.314.096.479 0 .164-.033.327-.096.479-.063.152-.155.29-.272.406l-7.5 7.5c-.235.234-.553.366-.885.366-.332 0-.65-.132-.885-.366-.235-.235-.366-.553-.366-.885 0-.332.131-.65.366-.885L31.985 20l-6.618-6.615c-.116-.116-.209-.254-.271-.406-.064-.152-.096-.315-.096-.48 0-.164.032-.326.096-.478.063-.152.155-.29.271-.406z" clip-rule="evenodd"/>
    <path fill="#0D4D66" fill-rule="evenodd" d="M5 20c0-.331.132-.65.366-.884.235-.234.552-.366.884-.366H32.5c.331 0 .65.132.884.366.234.235.366.553.366.884 0 .331-.132.65-.366.884-.234.234-.553.366-.884.366H6.25c-.332 0-.65-.132-.884-.366C5.132 20.649 5 20.33 5 20z" clip-rule="evenodd"/>
</svg>
