<svg width="1920" height="737" viewBox="0 0 1920 737" fill="none" xmlns="http://www.w3.org/2000/svg">
<mask id="mask0" mask-type="alpha" maskUnits="userSpaceOnUse" x="0" y="0" width="1920" height="737">
<rect width="1920" height="737" fill="#C4C4C4"/>
</mask>
<g mask="url(#mask0)">
<path d="M706.638 296.517C718.594 296.517 728.287 286.819 728.287 274.855C728.287 262.892 718.594 253.193 706.638 253.193C694.681 253.193 684.988 262.892 684.988 274.855C684.988 286.819 694.681 296.517 706.638 296.517Z" fill="white"/>
<path d="M1141.92 949.842C1188.71 903.034 1188.71 827.142 1141.92 780.334C1095.14 733.525 1019.3 733.525 972.514 780.334C925.732 827.142 925.732 903.034 972.514 949.842C1019.3 996.651 1095.14 996.651 1141.92 949.842Z" fill="white"/>
<path d="M142.006 609.759C156.611 548.265 118.629 486.567 57.17 471.954C-4.28855 457.34 -65.9503 495.345 -80.5553 556.839C-95.1603 618.333 -57.178 680.03 4.28057 694.644C65.7391 709.257 127.401 671.253 142.006 609.759Z" fill="white"/>
<path d="M201.393 635.723C260.122 612.444 288.872 545.935 265.606 487.172C242.34 428.408 175.87 399.643 117.14 422.922C58.4106 446.201 29.6614 512.709 52.9271 571.473C76.1927 630.237 142.663 659.002 201.393 635.723Z" fill="white"/>
<path d="M224.22 761.775C287.391 761.775 338.6 710.536 338.6 647.329C338.6 584.122 287.391 532.883 224.22 532.883C161.05 532.883 109.84 584.122 109.84 647.329C109.84 710.536 161.05 761.775 224.22 761.775Z" fill="white"/>
<path d="M165.442 830.66C224.147 807.311 252.819 740.767 229.484 682.029C206.149 623.29 139.642 594.601 80.9381 617.95C22.2338 641.299 -6.43857 707.843 16.8966 766.582C40.2318 825.32 106.738 854.009 165.442 830.66Z" fill="white"/>
<path d="M389.115 714.84C452.285 714.84 503.495 663.601 503.495 600.394C503.495 537.187 452.285 485.947 389.115 485.947C325.944 485.947 274.734 537.187 274.734 600.394C274.734 663.601 325.944 714.84 389.115 714.84Z" fill="white"/>
<path d="M460.065 577.069C475.851 515.866 439.062 453.446 377.894 437.651C316.726 421.855 254.343 458.666 238.556 519.869C222.77 581.072 259.559 643.492 320.727 659.288C381.895 675.083 444.279 638.273 460.065 577.069Z" fill="white"/>
<path d="M636.714 544.651C646.486 482.203 603.813 423.651 541.401 413.873C478.988 404.095 420.471 446.793 410.699 509.241C400.926 571.69 443.599 630.241 506.012 640.019C568.424 649.797 626.942 607.1 636.714 544.651Z" fill="white"/>
<path d="M665.554 634.894C675.314 572.446 632.631 513.905 570.218 504.14C507.806 494.374 449.299 537.082 439.539 599.531C429.779 661.979 472.462 720.52 534.875 730.285C597.287 740.051 655.794 697.343 665.554 634.894Z" fill="white"/>
<path d="M1061.87 567.211C1076.89 505.818 1039.32 443.87 977.962 428.845C916.605 413.821 854.692 451.41 839.677 512.803C824.661 574.196 862.228 636.144 923.586 651.169C984.943 666.193 1046.86 628.604 1061.87 567.211Z" fill="white"/>
<path d="M1309.31 522.319C1345.32 470.388 1332.44 399.083 1280.54 363.055C1228.64 327.027 1157.37 339.919 1121.36 391.85C1085.36 443.781 1098.24 515.085 1150.14 551.113C1202.04 587.141 1273.31 574.249 1309.31 522.319Z" fill="white"/>
<path d="M786.456 530.513C824.99 480.428 815.649 408.57 765.593 370.014C715.537 331.458 643.72 340.804 605.186 390.889C566.652 440.974 575.993 512.832 626.049 551.388C676.105 589.945 747.922 580.599 786.456 530.513Z" fill="white"/>
<path d="M839.06 530.715C902.231 530.715 953.44 479.476 953.44 416.269C953.44 353.062 902.231 301.822 839.06 301.822C775.889 301.822 724.68 353.062 724.68 416.269C724.68 479.476 775.889 530.715 839.06 530.715Z" fill="white"/>
<path d="M1141.55 488.778C1158.43 427.866 1122.76 364.795 1061.88 347.906C1001 331.017 937.969 366.706 921.09 427.618C904.211 488.531 939.878 551.601 1000.76 568.49C1061.63 585.379 1124.67 549.691 1141.55 488.778Z" fill="white"/>
<path d="M1141.28 393.953C1156.34 332.567 1118.81 270.593 1057.46 255.531C996.104 240.468 934.166 278.022 919.112 339.408C904.059 400.795 941.59 462.769 1002.94 477.831C1064.29 492.893 1126.23 455.34 1141.28 393.953Z" fill="white"/>
<path d="M1002.79 412.667C1047.46 367.974 1047.46 295.511 1002.79 250.817C958.123 206.124 885.702 206.124 841.035 250.817C796.367 295.511 796.367 367.974 841.035 412.667C885.702 457.361 958.123 457.361 1002.79 412.667Z" fill="white"/>
<path d="M1043.28 319.875C1079.15 319.875 1108.23 290.78 1108.23 254.89C1108.23 218.999 1079.15 189.904 1043.28 189.904C1007.41 189.904 978.336 218.999 978.336 254.89C978.336 290.78 1007.41 319.875 1043.28 319.875Z" fill="white"/>
<path d="M586.846 498.584C622.716 498.584 651.794 469.489 651.794 433.599C651.794 397.708 622.716 368.613 586.846 368.613C550.977 368.613 521.898 397.708 521.898 433.599C521.898 469.489 550.977 498.584 586.846 498.584Z" fill="white"/>
<path d="M43.8111 545.517C79.6808 545.517 108.759 516.423 108.759 480.532C108.759 444.642 79.6808 415.547 43.8111 415.547C7.9414 415.547 -21.1367 444.642 -21.1367 480.532C-21.1367 516.423 7.9414 545.517 43.8111 545.517Z" fill="white"/>
<path d="M1824.46 429.988C1860.33 429.988 1889.41 400.893 1889.41 365.003C1889.41 329.112 1860.33 300.018 1824.46 300.018C1788.59 300.018 1759.51 329.112 1759.51 365.003C1759.51 400.893 1788.59 429.988 1824.46 429.988Z" fill="white"/>
<path d="M1144.32 451.65C1180.18 451.65 1209.26 422.555 1209.26 386.665C1209.26 350.775 1180.18 321.68 1144.32 321.68C1108.45 321.68 1079.37 350.775 1079.37 386.665C1079.37 422.555 1108.45 451.65 1144.32 451.65Z" fill="white"/>
<path d="M431.69 552.738C467.56 552.738 496.638 523.643 496.638 487.753C496.638 451.862 467.56 422.768 431.69 422.768C395.82 422.768 366.742 451.862 366.742 487.753C366.742 523.643 395.82 552.738 431.69 552.738Z" fill="white"/>
<path d="M260.303 549.129C296.173 549.129 325.251 520.034 325.251 484.144C325.251 448.253 296.173 419.158 260.303 419.158C224.434 419.158 195.355 448.253 195.355 484.144C195.355 520.034 224.434 549.129 260.303 549.129Z" fill="white"/>
<path d="M923.128 315.181C958.997 315.181 988.075 286.087 988.075 250.196C988.075 214.306 958.997 185.211 923.128 185.211C887.258 185.211 858.18 214.306 858.18 250.196C858.18 286.087 887.258 315.181 923.128 315.181Z" fill="white"/>
<path d="M438.911 368.252C443.295 368.252 446.849 364.696 446.849 360.31C446.849 355.923 443.295 352.367 438.911 352.367C434.527 352.367 430.973 355.923 430.973 360.31C430.973 364.696 434.527 368.252 438.911 368.252Z" fill="white"/>
<path d="M1411.32 649.856C1474.49 649.856 1525.7 598.616 1525.7 535.409C1525.7 472.202 1474.49 420.963 1411.32 420.963C1348.15 420.963 1296.94 472.202 1296.94 535.409C1296.94 598.616 1348.15 649.856 1411.32 649.856Z" fill="white"/>
<path d="M1710 571.525C1754.67 526.831 1754.67 454.368 1710 409.675C1665.33 364.981 1592.91 364.981 1548.24 409.675C1503.57 454.368 1503.57 526.831 1548.24 571.525C1592.91 616.218 1665.33 616.218 1710 571.525Z" fill="white"/>
<path d="M1814.63 531.814C1859.3 487.12 1859.3 414.657 1814.64 369.964C1769.97 325.27 1697.55 325.27 1652.88 369.964C1608.21 414.657 1608.21 487.12 1652.88 531.814C1697.55 576.507 1769.97 576.507 1814.63 531.814Z" fill="white"/>
<path d="M1906.65 593.189C1951.31 548.495 1951.31 476.032 1906.65 431.339C1861.98 386.645 1789.56 386.645 1744.89 431.339C1700.22 476.032 1700.22 548.495 1744.89 593.189C1789.56 637.882 1861.98 637.882 1906.65 593.189Z" fill="white"/>
<path d="M1751.94 653.465C1815.11 653.465 1866.32 602.226 1866.32 539.019C1866.32 475.812 1815.11 424.572 1751.94 424.572C1688.76 424.572 1637.55 475.812 1637.55 539.019C1637.55 602.226 1688.76 653.465 1751.94 653.465Z" fill="white"/>
<path d="M1593.28 666.168C1652.93 645.354 1684.42 580.1 1663.61 520.42C1642.81 460.74 1577.6 429.233 1517.95 450.047C1458.31 470.861 1426.82 536.115 1447.62 595.795C1468.42 655.475 1533.64 686.982 1593.28 666.168Z" fill="white"/>
<path d="M1565.67 567.913C1610.34 523.22 1610.34 450.757 1565.67 406.063C1521 361.37 1448.58 361.37 1403.91 406.063C1359.25 450.757 1359.25 523.22 1403.91 567.913C1448.58 612.607 1521 612.607 1565.67 567.913Z" fill="white"/>
<path d="M1450.89 531.867C1486.22 479.475 1472.42 408.34 1420.06 372.982C1367.7 337.624 1296.6 351.433 1261.27 403.825C1225.93 456.217 1239.73 527.353 1292.09 562.711C1344.45 598.069 1415.55 584.26 1450.89 531.867Z" fill="white"/>
<path d="M1393.84 626.801C1411.15 566.015 1375.94 502.694 1315.19 485.369C1254.44 468.044 1191.15 503.276 1173.84 564.062C1156.52 624.848 1191.73 688.17 1252.48 705.495C1313.23 722.82 1376.52 687.588 1393.84 626.801Z" fill="white"/>
<path d="M1158.07 662.252C1217.46 640.717 1248.16 575.085 1226.64 515.658C1205.11 456.231 1139.52 425.513 1080.13 447.047C1020.73 468.582 990.033 534.214 1011.56 593.641C1033.08 653.069 1098.67 683.787 1158.07 662.252Z" fill="white"/>
<path d="M1163.07 680.177C1179.98 619.277 1144.34 556.192 1083.48 539.271C1022.62 522.351 959.566 558.003 942.655 618.903C925.744 679.803 961.376 742.889 1022.24 759.809C1083.11 776.73 1146.15 741.077 1163.07 680.177Z" fill="white"/>
<path d="M782.851 693.013C821.404 642.941 812.089 571.077 762.045 532.502C712.001 493.927 640.18 503.247 601.627 553.32C563.074 603.393 572.389 675.256 622.432 713.831C672.476 752.406 744.298 743.086 782.851 693.013Z" fill="white"/>
<path d="M699.419 833.981C762.59 833.981 813.8 782.741 813.8 719.534C813.8 656.327 762.59 605.088 699.419 605.088C636.249 605.088 585.039 656.327 585.039 719.534C585.039 782.741 636.249 833.981 699.419 833.981Z" fill="white"/>
<path d="M1026.16 806.315C1063.52 755.351 1052.52 683.729 1001.59 646.342C950.653 608.955 879.072 619.961 841.707 670.925C804.341 721.889 815.341 793.511 866.276 830.898C917.21 868.285 988.791 857.279 1026.16 806.315Z" fill="white"/>
<path d="M899.036 748.474C958.258 726.484 988.452 660.621 966.475 601.365C944.498 542.108 878.673 511.898 819.45 533.887C760.228 555.877 730.035 621.74 752.012 680.997C773.989 740.253 839.814 770.464 899.036 748.474Z" fill="white"/>
<path d="M788.54 685.959C851.711 685.959 902.921 634.72 902.921 571.513C902.921 508.306 851.711 457.066 788.54 457.066C725.37 457.066 674.16 508.306 674.16 571.513C674.16 634.72 725.37 685.959 788.54 685.959Z" fill="white"/>
<path d="M1194.02 784.918C1253.43 763.44 1284.19 697.838 1262.73 638.392C1241.26 578.946 1175.7 548.167 1116.29 569.644C1056.87 591.122 1026.11 656.724 1047.58 716.17C1069.04 775.616 1134.61 806.396 1194.02 784.918Z" fill="white"/>
<path d="M1417.45 812.318C1480.62 812.318 1531.83 761.079 1531.83 697.872C1531.83 634.665 1480.62 583.426 1417.45 583.426C1354.28 583.426 1303.07 634.665 1303.07 697.872C1303.07 761.079 1354.28 812.318 1417.45 812.318Z" fill="white"/>
<path d="M1340.37 771.697C1349.86 709.21 1306.93 650.854 1244.48 641.354C1182.03 631.854 1123.71 674.808 1114.21 737.294C1104.72 799.78 1147.65 858.137 1210.1 867.637C1272.55 877.137 1330.87 834.183 1340.37 771.697Z" fill="white"/>
<path d="M1547.35 830.371C1610.52 830.371 1661.73 779.132 1661.73 715.925C1661.73 652.718 1610.52 601.479 1547.35 601.479C1484.18 601.479 1432.97 652.718 1432.97 715.925C1432.97 779.132 1484.18 830.371 1547.35 830.371Z" fill="white"/>
<path d="M869.287 842.288C913.955 797.595 913.955 725.132 869.287 680.438C824.62 635.745 752.199 635.745 707.531 680.438C662.863 725.132 662.863 797.595 707.531 842.288C752.199 886.982 824.62 886.982 869.287 842.288Z" fill="white"/>
<path d="M1729.08 783.11C1747.01 722.501 1712.43 658.825 1651.86 640.887C1591.29 622.949 1527.65 657.541 1509.72 718.15C1491.79 778.759 1526.36 842.434 1586.94 860.372C1647.51 878.311 1711.15 843.719 1729.08 783.11Z" fill="white"/>
<path d="M1811.83 819.539C1875 819.539 1926.21 768.3 1926.21 705.093C1926.21 641.886 1875 590.646 1811.83 590.646C1748.66 590.646 1697.45 641.886 1697.45 705.093C1697.45 768.3 1748.66 819.539 1811.83 819.539Z" fill="white"/>
<path d="M1708.6 699.384C1742.75 646.202 1727.34 575.394 1674.19 541.231C1621.03 507.067 1550.27 522.485 1516.12 575.668C1481.98 628.85 1497.39 699.658 1550.54 733.821C1603.69 767.985 1674.46 752.567 1708.6 699.384Z" fill="white"/>
<path d="M384.421 915.573C500.001 915.573 593.697 821.823 593.697 706.176C593.697 590.53 500.001 496.779 384.421 496.779C268.841 496.779 175.145 590.53 175.145 706.176C175.145 821.823 268.841 915.573 384.421 915.573Z" fill="white"/>
<path d="M1343.12 749.87C1352.61 687.384 1309.68 629.027 1247.23 619.527C1184.78 610.027 1126.46 652.981 1116.96 715.468C1107.47 777.954 1150.4 836.311 1212.85 845.811C1275.3 855.311 1333.62 812.357 1343.12 749.87Z" fill="url(#paint0_linear)"/>
<path d="M1179.47 717.382C1208.55 676.416 1198.93 619.622 1157.98 590.529C1117.04 561.436 1060.28 571.062 1031.21 612.028C1002.13 652.994 1011.75 709.787 1052.69 738.88C1093.63 767.973 1150.39 758.348 1179.47 717.382Z" fill="url(#paint1_linear)"/>
<path d="M1163.76 742.905C1171.33 693.237 1137.24 646.826 1087.6 639.243C1037.96 631.661 991.572 665.779 983.994 715.448C976.416 765.116 1010.51 811.527 1060.15 819.11C1109.79 826.692 1156.18 792.574 1163.76 742.905Z" fill="#372D60"/>
<path d="M1495.84 760.663C1503.32 710.974 1469.12 664.628 1419.46 657.147C1369.8 649.665 1323.49 683.881 1316.01 733.57C1308.53 783.258 1342.73 829.604 1392.39 837.086C1442.05 844.568 1488.37 810.352 1495.84 760.663Z" fill="#372D60"/>
<path d="M1703.32 636.158C1710.74 586.465 1676.49 540.164 1626.83 532.742C1577.16 525.321 1530.89 559.589 1523.47 609.283C1516.05 658.977 1550.3 705.278 1599.97 712.699C1649.63 720.121 1695.91 685.852 1703.32 636.158Z" fill="url(#paint2_linear)"/>
<path d="M1534 880.553C1603.75 880.553 1660.29 823.979 1660.29 754.192C1660.29 684.405 1603.75 627.832 1534 627.832C1464.26 627.832 1407.71 684.405 1407.71 754.192C1407.71 823.979 1464.26 880.553 1534 880.553Z" fill="url(#paint3_linear)"/>
<path d="M876.944 837.228C946.69 837.228 1003.23 780.655 1003.23 710.868C1003.23 641.081 946.69 584.508 876.944 584.508C807.197 584.508 750.656 641.081 750.656 710.868C750.656 780.655 807.197 837.228 876.944 837.228Z" fill="url(#paint4_linear)"/>
<path d="M1699.98 869.723C1769.73 869.723 1826.27 813.149 1826.27 743.362C1826.27 673.575 1769.73 617.002 1699.98 617.002C1630.23 617.002 1573.69 673.575 1573.69 743.362C1573.69 813.149 1630.23 869.723 1699.98 869.723Z" fill="url(#paint5_linear)"/>
<path d="M1811.83 759.607C1881.58 759.607 1938.12 703.034 1938.12 633.247C1938.12 563.46 1881.58 506.887 1811.83 506.887C1742.09 506.887 1685.55 563.46 1685.55 633.247C1685.55 703.034 1742.09 759.607 1811.83 759.607Z" fill="#372D60"/>
<path d="M1864.15 654.91C1933.9 654.91 1990.44 598.337 1990.44 528.55C1990.44 458.763 1933.9 402.189 1864.15 402.189C1794.41 402.189 1737.87 458.763 1737.87 528.55C1737.87 598.337 1794.41 654.91 1864.15 654.91Z" fill="url(#paint6_linear)"/>
<path d="M1349.98 889.578C1419.73 889.578 1476.27 833.004 1476.27 763.218C1476.27 693.431 1419.73 636.857 1349.98 636.857C1280.24 636.857 1223.7 693.431 1223.7 763.218C1223.7 833.004 1280.24 889.578 1349.98 889.578Z" fill="url(#paint7_linear)"/>
<path d="M978.334 831.814C1048.08 831.814 1104.62 775.241 1104.62 705.454C1104.62 635.667 1048.08 579.094 978.334 579.094C908.588 579.094 852.047 635.667 852.047 705.454C852.047 775.241 908.588 831.814 978.334 831.814Z" fill="url(#paint8_linear)"/>
<path d="M729.369 814.846C799.116 814.846 855.657 758.272 855.657 688.485C855.657 618.698 799.116 562.125 729.369 562.125C659.623 562.125 603.082 618.698 603.082 688.485C603.082 758.272 659.623 814.846 729.369 814.846Z" fill="url(#paint9_linear)"/>
<path d="M527.311 813.402C597.057 813.402 653.598 756.829 653.598 687.042C653.598 617.255 597.057 560.682 527.311 560.682C457.564 560.682 401.023 617.255 401.023 687.042C401.023 756.829 457.564 813.402 527.311 813.402Z" fill="url(#paint10_linear)"/>
<path d="M306.123 772.244C375.87 772.244 432.411 715.671 432.411 645.884C432.411 576.097 375.87 519.523 306.123 519.523C236.377 519.523 179.836 576.097 179.836 645.884C179.836 715.671 236.377 772.244 306.123 772.244Z" fill="url(#paint11_linear)"/>
<path d="M363.854 875.859C433.6 875.859 490.141 819.286 490.141 749.499C490.141 679.712 433.6 623.139 363.854 623.139C294.107 623.139 237.566 679.712 237.566 749.499C237.566 819.286 294.107 875.859 363.854 875.859Z" fill="url(#paint12_linear)"/>
<path d="M106.588 755.637C176.335 755.637 232.876 699.063 232.876 629.276C232.876 559.489 176.335 502.916 106.588 502.916C36.8416 502.916 -19.6992 559.489 -19.6992 629.276C-19.6992 699.063 36.8416 755.637 106.588 755.637Z" fill="url(#paint13_linear)"/>
<path d="M455.147 793.906C524.893 793.906 581.434 737.333 581.434 667.546C581.434 597.759 524.893 541.186 455.147 541.186C385.4 541.186 328.859 597.759 328.859 667.546C328.859 737.333 385.4 793.906 455.147 793.906Z" fill="url(#paint14_linear)"/>
<path d="M166.491 854.197C236.237 854.197 292.778 797.624 292.778 727.837C292.778 658.05 236.237 601.477 166.491 601.477C96.7439 601.477 40.2031 658.05 40.2031 727.837C40.2031 797.624 96.7439 854.197 166.491 854.197Z" fill="url(#paint15_linear)"/>
<path d="M43.8109 885.607C113.557 885.607 170.098 829.034 170.098 759.247C170.098 689.46 113.557 632.887 43.8109 632.887C-25.9358 632.887 -82.4766 689.46 -82.4766 759.247C-82.4766 829.034 -25.9358 885.607 43.8109 885.607Z" fill="url(#paint16_linear)"/>
<path d="M1743.28 768.633C1813.02 768.633 1869.56 712.059 1869.56 642.272C1869.56 572.486 1813.02 515.912 1743.28 515.912C1673.53 515.912 1616.99 572.486 1616.99 642.272C1616.99 712.059 1673.53 768.633 1743.28 768.633Z" fill="url(#paint17_linear)"/>
<path d="M193.937 818.362C204.477 753.012 160.074 691.486 94.7611 680.941C29.4483 670.395 -32.0419 714.824 -42.5811 780.174C-53.1203 845.525 -8.71759 907.051 56.5952 917.596C121.908 928.141 183.398 883.713 193.937 818.362Z" fill="white"/>
<path d="M307.147 857.801C353.929 810.993 353.929 735.101 307.147 688.293C260.366 641.484 184.518 641.484 137.737 688.293C90.9551 735.101 90.9551 810.993 137.737 857.801C184.518 904.61 260.366 904.61 307.147 857.801Z" fill="white"/>
<path d="M498.017 742.998C512.638 678.435 472.183 614.237 407.657 599.607C343.132 584.977 278.97 625.456 264.349 690.019C249.728 754.581 290.183 818.78 354.709 833.409C419.234 848.039 483.395 807.56 498.017 742.998Z" fill="white"/>
<path d="M176.026 737.009C190.919 672.512 150.737 608.147 86.2775 593.246C21.8181 578.345 -42.5093 618.55 -57.4019 683.047C-72.2944 747.543 -32.1125 811.908 32.3468 826.809C96.8062 841.71 161.134 801.505 176.026 737.009Z" fill="white"/>
<path d="M436.742 935.069C502.902 935.069 556.535 881.405 556.535 815.207C556.535 749.01 502.902 695.346 436.742 695.346C370.582 695.346 316.949 749.01 316.949 815.207C316.949 881.405 370.582 935.069 436.742 935.069Z" fill="white"/>
<path d="M652.398 760.109C666.232 695.374 624.999 631.675 560.301 617.833C495.604 603.991 431.941 645.248 418.107 709.983C404.273 774.717 445.506 838.416 510.204 852.258C574.901 866.1 638.564 824.844 652.398 760.109Z" fill="white"/>
<path d="M604.886 906.186C671.046 906.186 724.679 852.522 724.679 786.325C724.679 720.127 671.046 666.463 604.886 666.463C538.727 666.463 485.094 720.127 485.094 786.325C485.094 852.522 538.727 906.186 604.886 906.186Z" fill="white"/>
<path d="M803.929 778.522C818.299 713.906 777.597 649.869 713.018 635.491C648.44 621.113 584.44 661.838 570.07 726.454C555.7 791.07 596.402 855.107 660.98 869.485C725.559 883.863 789.559 843.138 803.929 778.522Z" fill="white"/>
<path d="M941.042 768.485C951.416 703.108 906.858 641.695 841.519 631.315C776.179 620.935 714.802 665.519 704.428 730.896C694.054 796.273 738.613 857.686 803.952 868.066C869.291 878.446 930.669 833.862 941.042 768.485Z" fill="white"/>
<path d="M1039.78 826.714C1078.86 773.299 1067.27 698.299 1013.88 659.196C960.499 620.093 885.541 631.695 846.461 685.11C807.38 738.525 818.976 813.525 872.36 852.629C925.744 891.732 1000.7 880.129 1039.78 826.714Z" fill="white"/>
<path d="M1104.19 852.445C1166.35 829.772 1198.36 760.975 1175.71 698.782C1153.05 636.589 1084.29 604.552 1022.13 627.225C959.974 649.897 927.955 718.695 950.615 780.887C973.275 843.08 1042.03 875.118 1104.19 852.445Z" fill="white"/>
<path d="M1316.23 813.321C1332.07 749.049 1292.84 684.1 1228.6 668.252C1164.37 652.404 1099.45 691.659 1083.62 755.931C1067.78 820.202 1107.01 885.152 1171.24 901C1235.48 916.847 1300.39 877.592 1316.23 813.321Z" fill="white"/>
<path d="M1311.38 919.544C1377.54 919.544 1431.17 865.88 1431.17 799.682C1431.17 733.484 1377.54 679.82 1311.38 679.82C1245.22 679.82 1191.59 733.484 1191.59 799.682C1191.59 865.88 1245.22 919.544 1311.38 919.544Z" fill="white"/>
<path d="M1560.48 851.537C1607.26 804.729 1607.26 728.837 1560.48 682.029C1513.69 635.221 1437.85 635.22 1391.06 682.029C1344.28 728.837 1344.28 804.729 1391.06 851.537C1437.85 898.346 1513.69 898.346 1560.48 851.537Z" fill="white"/>
<path d="M1646.94 832.897C1713.1 832.897 1766.73 779.233 1766.73 713.036C1766.73 646.838 1713.1 593.174 1646.94 593.174C1580.78 593.174 1527.15 646.838 1527.15 713.036C1527.15 779.233 1580.78 832.897 1646.94 832.897Z" fill="white"/>
<path d="M1540.86 801.487C1607.01 801.487 1660.65 747.823 1660.65 681.625C1660.65 615.428 1607.01 561.764 1540.86 561.764C1474.7 561.764 1421.06 615.428 1421.06 681.625C1421.06 747.823 1474.7 801.487 1540.86 801.487Z" fill="white"/>
<path d="M1795.6 810.513C1861.76 810.513 1915.39 756.849 1915.39 690.651C1915.39 624.453 1861.76 570.789 1795.6 570.789C1729.44 570.789 1675.8 624.453 1675.8 690.651C1675.8 756.849 1729.44 810.513 1795.6 810.513Z" fill="white"/>
<path d="M1860.55 870.083C1926.71 870.083 1980.34 816.419 1980.34 750.221C1980.34 684.023 1926.71 630.359 1860.55 630.359C1794.39 630.359 1740.75 684.023 1740.75 750.221C1740.75 816.419 1794.39 870.083 1860.55 870.083Z" fill="white"/>
<rect x="-50.5625" y="715" width="1920" height="201" fill="white"/>
<path d="M906.889 147.303C906.889 159.939 896.786 170.048 884.158 170.048C871.529 170.048 861.426 159.939 861.426 147.303C861.426 134.667 871.529 124.559 884.158 124.559C896.786 124.559 906.889 134.667 906.889 147.303Z" fill="white"/>
<path d="M1197.35 289.236C1205.32 289.236 1211.78 282.77 1211.78 274.795C1211.78 266.819 1205.32 260.354 1197.35 260.354C1189.38 260.354 1182.92 266.819 1182.92 274.795C1182.92 282.77 1189.38 289.236 1197.35 289.236Z" fill="white"/>
<path d="M1020.55 128.529C1020.55 131.778 1018.03 134.667 1014.42 134.667C1011.17 134.667 1008.29 132.139 1008.29 128.529C1008.29 125.28 1010.81 122.392 1014.42 122.392C1018.03 122.392 1020.55 125.28 1020.55 128.529Z" fill="white"/>
<path d="M837.612 19.1375C837.612 22.3868 835.086 25.275 831.478 25.275C828.23 25.275 825.344 22.7478 825.344 19.1375C825.344 15.5272 827.87 13 831.478 13C835.086 13 837.612 15.5272 837.612 19.1375Z" fill="white"/>
<path d="M1045.81 41.8816C1045.81 45.1309 1043.29 48.0191 1039.68 48.0191C1036.43 48.0191 1033.54 45.4919 1033.54 41.8816C1033.54 38.6324 1036.07 35.7441 1039.68 35.7441C1043.29 35.7441 1045.81 38.6324 1045.81 41.8816Z" fill="white"/>
<path d="M898.953 60.2949C898.953 64.9883 895.345 68.5986 890.654 68.5986C885.964 68.5986 882.355 64.9883 882.355 60.2949C882.355 55.6015 885.964 51.9912 890.654 51.9912C894.984 51.9912 898.953 55.6015 898.953 60.2949Z" fill="white"/>
<path d="M1321.12 262.882C1329.09 262.882 1335.55 256.417 1335.55 248.441C1335.55 240.466 1329.09 234 1321.12 234C1313.15 234 1306.68 240.466 1306.68 248.441C1306.68 256.417 1313.15 262.882 1321.12 262.882Z" fill="white"/>
</g>
<defs>
<linearGradient id="paint0_linear" x1="1205.55" y1="844.699" x2="1239.97" y2="618.422" gradientUnits="userSpaceOnUse">
<stop stop-color="#0D4155"/>
<stop offset="0.9999" stop-color="#13A89E"/>
<stop offset="1" stop-color="#C4C4C4" stop-opacity="0"/>
</linearGradient>
<linearGradient id="paint1_linear" x1="1047.9" y1="735.477" x2="1153.28" y2="587.184" gradientUnits="userSpaceOnUse">
<stop stop-color="#0D4155"/>
<stop offset="0.9999" stop-color="#13A89E"/>
<stop offset="1" stop-color="#C4C4C4" stop-opacity="0"/>
</linearGradient>
<linearGradient id="paint2_linear" x1="1594.16" y1="711.831" x2="1621.05" y2="531.879" gradientUnits="userSpaceOnUse">
<stop stop-color="#0D4155"/>
<stop offset="0.9999" stop-color="#13A89E"/>
<stop offset="1" stop-color="#C4C4C4" stop-opacity="0"/>
</linearGradient>
<linearGradient id="paint3_linear" x1="1407.71" y1="746.03" x2="1660.29" y2="746.03" gradientUnits="userSpaceOnUse">
<stop stop-color="#0D4155"/>
<stop offset="0.9999" stop-color="#13A89E"/>
<stop offset="1" stop-color="#C4C4C4" stop-opacity="0"/>
</linearGradient>
<linearGradient id="paint4_linear" x1="750.656" y1="702.705" x2="1003.23" y2="702.705" gradientUnits="userSpaceOnUse">
<stop stop-color="#0D4155"/>
<stop offset="0.9999" stop-color="#13A89E"/>
<stop offset="1" stop-color="#C4C4C4" stop-opacity="0"/>
</linearGradient>
<linearGradient id="paint5_linear" x1="1573.69" y1="735.199" x2="1826.27" y2="735.199" gradientUnits="userSpaceOnUse">
<stop stop-color="#0D4155"/>
<stop offset="0.9999" stop-color="#13A89E"/>
<stop offset="1" stop-color="#C4C4C4" stop-opacity="0"/>
</linearGradient>
<linearGradient id="paint6_linear" x1="1737.87" y1="520.387" x2="1990.44" y2="520.387" gradientUnits="userSpaceOnUse">
<stop stop-color="#0D4155"/>
<stop offset="0.9999" stop-color="#13A89E"/>
<stop offset="1" stop-color="#C4C4C4" stop-opacity="0"/>
</linearGradient>
<linearGradient id="paint7_linear" x1="1223.7" y1="755.055" x2="1476.27" y2="755.055" gradientUnits="userSpaceOnUse">
<stop stop-color="#0D4155"/>
<stop offset="0.9999" stop-color="#13A89E"/>
<stop offset="1" stop-color="#C4C4C4" stop-opacity="0"/>
</linearGradient>
<linearGradient id="paint8_linear" x1="852.047" y1="697.291" x2="1104.62" y2="697.291" gradientUnits="userSpaceOnUse">
<stop stop-color="#0D4155"/>
<stop offset="0.9999" stop-color="#13A89E"/>
<stop offset="1" stop-color="#C4C4C4" stop-opacity="0"/>
</linearGradient>
<linearGradient id="paint9_linear" x1="603.082" y1="680.322" x2="855.657" y2="680.322" gradientUnits="userSpaceOnUse">
<stop stop-color="#0D4155"/>
<stop offset="0.9999" stop-color="#13A89E"/>
<stop offset="1" stop-color="#C4C4C4" stop-opacity="0"/>
</linearGradient>
<linearGradient id="paint10_linear" x1="401.023" y1="678.879" x2="653.598" y2="678.879" gradientUnits="userSpaceOnUse">
<stop stop-color="#0D4155"/>
<stop offset="0.9999" stop-color="#13A89E"/>
<stop offset="1" stop-color="#C4C4C4" stop-opacity="0"/>
</linearGradient>
<linearGradient id="paint11_linear" x1="179.836" y1="637.721" x2="432.411" y2="637.721" gradientUnits="userSpaceOnUse">
<stop stop-color="#0D4155"/>
<stop offset="0.9999" stop-color="#13A89E"/>
<stop offset="1" stop-color="#C4C4C4" stop-opacity="0"/>
</linearGradient>
<linearGradient id="paint12_linear" x1="237.566" y1="741.336" x2="490.141" y2="741.336" gradientUnits="userSpaceOnUse">
<stop stop-color="#0D4155"/>
<stop offset="0.9999" stop-color="#13A89E"/>
<stop offset="1" stop-color="#C4C4C4" stop-opacity="0"/>
</linearGradient>
<linearGradient id="paint13_linear" x1="-19.6992" y1="621.114" x2="232.876" y2="621.114" gradientUnits="userSpaceOnUse">
<stop stop-color="#0D4155"/>
<stop offset="0.9999" stop-color="#13A89E"/>
<stop offset="1" stop-color="#C4C4C4" stop-opacity="0"/>
</linearGradient>
<linearGradient id="paint14_linear" x1="328.859" y1="659.383" x2="581.434" y2="659.383" gradientUnits="userSpaceOnUse">
<stop stop-color="#0D4155"/>
<stop offset="0.9999" stop-color="#13A89E"/>
<stop offset="1" stop-color="#C4C4C4" stop-opacity="0"/>
</linearGradient>
<linearGradient id="paint15_linear" x1="40.2031" y1="719.674" x2="292.778" y2="719.674" gradientUnits="userSpaceOnUse">
<stop stop-color="#0D4155"/>
<stop offset="0.9999" stop-color="#13A89E"/>
<stop offset="1" stop-color="#C4C4C4" stop-opacity="0"/>
</linearGradient>
<linearGradient id="paint16_linear" x1="-82.4766" y1="751.084" x2="170.098" y2="751.084" gradientUnits="userSpaceOnUse">
<stop stop-color="#0D4155"/>
<stop offset="0.9999" stop-color="#13A89E"/>
<stop offset="1" stop-color="#C4C4C4" stop-opacity="0"/>
</linearGradient>
<linearGradient id="paint17_linear" x1="1616.99" y1="634.11" x2="1869.56" y2="634.11" gradientUnits="userSpaceOnUse">
<stop stop-color="#0D4155"/>
<stop offset="0.9999" stop-color="#13A89E"/>
<stop offset="1" stop-color="#C4C4C4" stop-opacity="0"/>
</linearGradient>
</defs>
</svg>
