<svg width="108" height="223" viewBox="0 0 108 223" fill="none" xmlns="http://www.w3.org/2000/svg">
<path d="M89.1463 97.057C89.1463 150.643 53.331 194.114 53.331 194.114C51.4172 191.927 17.5156 149.276 17.5156 97.057C17.5156 43.4706 33.6462 0 53.331 0C73.2892 0 89.1463 43.4706 89.1463 97.057Z" fill="white"/>
<path d="M74.1052 206.417H33.642C32.275 206.417 31.4548 205.05 31.7282 203.956L32.8217 199.582L40.7504 170.055H66.9968L74.9254 199.582L76.019 203.956C76.5658 205.323 75.4722 206.417 74.1052 206.417Z" fill="#EA3B44"/>
<path d="M74.924 199.583H32.8203L40.749 169.782H66.9954L74.924 199.583Z" fill="#D12C3D"/>
<path d="M35.8284 148.184C35.8284 148.184 3.02046 163.221 0.0130594 220.088C-0.26034 222.822 3.84065 223.642 4.66085 220.908C11.4958 199.856 28.1732 171.969 49.7718 171.969L35.8284 148.184Z" fill="white"/>
<path d="M36.6488 148.184C36.6488 148.184 3.84077 163.221 0.833372 220.088C0.559972 222.822 4.66096 223.642 5.48116 220.908C12.3162 199.856 28.9936 171.969 50.5922 171.969L36.6488 148.184Z" fill="#EA3B44"/>
<path d="M71.3691 148.184C71.3691 148.184 104.177 163.221 107.185 220.088C107.458 222.822 103.357 223.642 102.537 220.908C95.7018 199.856 79.0244 171.969 57.4258 171.969L71.3691 148.184Z" fill="#D12C3D"/>
<path d="M89.9589 97.8776C89.9589 151.464 54.1435 194.935 54.1435 194.935C52.2297 192.747 18.3281 150.097 18.3281 97.8776C18.3281 44.2912 34.4587 0.820619 54.1435 0.820619C73.8283 0.547219 89.9589 44.0178 89.9589 97.8776Z" fill="#EA3B44"/>
<path d="M89.9599 97.8776C89.9599 151.464 54.1445 194.935 54.1445 194.935V0.820619C73.8293 0.547219 89.9599 44.0178 89.9599 97.8776Z" fill="#D12C3D"/>
<path d="M71.366 66.1625C71.366 76.2783 63.1641 84.4803 53.0483 84.4803C42.9325 84.4803 34.7305 76.2783 34.7305 66.1625C34.7305 56.0467 42.9325 47.8447 53.0483 47.8447C63.1641 47.8447 71.366 56.0467 71.366 66.1625Z" fill="#D12C3D"/>
<path d="M71.9207 66.7094C71.9207 76.8252 63.7187 85.0272 53.6029 85.0272C43.4871 85.0272 35.2852 76.8252 35.2852 66.7094C35.2852 56.5936 43.4871 48.3916 53.6029 48.3916C63.7187 48.3916 71.9207 56.5936 71.9207 66.7094Z" fill="#EA3B44"/>
<path d="M56.0579 137.247C56.0579 138.887 54.6909 139.981 53.3239 139.981C51.6835 139.981 50.5898 138.614 50.5898 137.247C50.5898 135.606 51.9569 134.513 53.3239 134.513C54.9643 134.513 56.0579 135.606 56.0579 137.247Z" fill="#D12C3D"/>
<path d="M56.3352 137.247C56.3352 138.887 54.9682 139.981 53.6012 139.981C51.9608 139.981 50.8672 138.614 50.8672 137.247C50.8672 135.606 52.2342 134.513 53.6012 134.513C54.9682 134.513 56.3352 135.606 56.3352 137.247Z" fill="#EA3B44"/>
<path d="M56.0579 123.577C56.0579 125.217 54.6909 126.311 53.3239 126.311C51.6835 126.311 50.5898 124.944 50.5898 123.577C50.5898 121.936 51.9569 120.843 53.3239 120.843C54.9643 120.843 56.0579 121.936 56.0579 123.577Z" fill="#D12C3D"/>
<path d="M56.3352 123.577C56.3352 125.217 54.9682 126.311 53.6012 126.311C51.9608 126.311 50.8672 124.944 50.8672 123.577C50.8672 121.936 52.2342 120.843 53.6012 120.843C54.9682 120.843 56.3352 122.21 56.3352 123.577Z" fill="#EA3B44"/>
<path d="M56.0579 109.907C56.0579 111.547 54.6909 112.641 53.3239 112.641C51.6835 112.641 50.5898 111.274 50.5898 109.907C50.5898 108.266 51.9569 107.173 53.3239 107.173C54.9643 107.173 56.0579 108.266 56.0579 109.907Z" fill="#D12C3D"/>
<path d="M56.3352 109.907C56.3352 111.547 54.9682 112.641 53.6012 112.641C51.9608 112.641 50.8672 111.274 50.8672 109.907C50.8672 108.266 52.2342 107.173 53.6012 107.173C54.9682 107.173 56.3352 108.54 56.3352 109.907Z" fill="#EA3B44"/>
<path d="M68.9059 66.7098C68.9059 75.1852 62.071 81.7468 53.869 81.7468C45.3936 81.7468 38.832 74.9118 38.832 66.7098C38.832 58.5078 45.667 51.6729 53.869 51.6729C62.071 51.6729 68.9059 58.2344 68.9059 66.7098Z" fill="#EAEAEA"/>
<path d="M63.165 59.6014C61.2512 57.961 58.7906 57.1408 56.0566 57.1408C49.4951 57.1408 44.027 62.6088 44.027 69.1704C44.027 71.9044 44.8472 74.365 46.4876 76.5522C43.4802 74.365 41.5664 70.8108 41.5664 66.9832C41.5664 60.4216 47.0344 54.9536 53.596 54.9536C57.697 54.6802 60.9778 56.594 63.165 59.6014Z" fill="white"/>
</svg>
