<svg xmlns="http://www.w3.org/2000/svg" width="22" height="22" fill="none" viewBox="0 0 22 22">
    <path fill="#0D4D66" d="M11 8.136c-1.577 0-2.864 1.287-2.864 2.864S9.423 13.864 11 13.864s2.864-1.287 2.864-2.864S12.577 8.136 11 8.136zM19.59 11c0-1.186.01-2.361-.057-3.545-.066-1.375-.38-2.595-1.385-3.6-1.008-1.008-2.226-1.32-3.601-1.386-1.186-.067-2.361-.056-3.545-.056-1.186 0-2.361-.011-3.545.056-1.375.066-2.595.38-3.6 1.385C2.848 4.862 2.536 6.08 2.47 7.455 2.404 8.641 2.415 9.816 2.415 11c0 1.184-.011 2.361.056 3.545.066 1.375.38 2.595 1.385 3.6 1.008 1.008 2.226 1.32 3.601 1.387 1.186.066 2.361.055 3.545.055 1.186 0 2.361.011 3.545-.055 1.375-.067 2.595-.38 3.6-1.386 1.008-1.008 1.32-2.226 1.386-3.601.07-1.184.056-2.359.056-3.545zM11 15.406c-2.439 0-4.407-1.968-4.407-4.406 0-2.438 1.968-4.406 4.407-4.406 2.438 0 4.406 1.968 4.406 4.406 0 2.438-1.968 4.406-4.406 4.406zm4.587-7.964c-.57 0-1.03-.46-1.03-1.029 0-.57.46-1.029 1.03-1.029.57 0 1.029.46 1.029 1.03 0 .134-.026.268-.078.393-.052.125-.128.239-.223.334-.096.096-.21.172-.334.223-.125.052-.259.078-.394.078z"/>
</svg>
