<svg xmlns="http://www.w3.org/2000/svg" width="22" height="22" fill="none" viewBox="0 0 22 22">
    <path fill="#0D4D66" d="M18.592 9.493H10.96v3.163h4.393c-.41 2.01-2.12 3.166-4.393 3.166-.636 0-1.266-.124-1.853-.367-.588-.242-1.122-.599-1.571-1.049-.45-.45-.806-.983-1.05-1.571-.242-.588-.366-1.218-.365-1.853-.001-.636.123-1.266.366-1.854.243-.587.6-1.121 1.049-1.57.45-.45.983-.807 1.57-1.05.589-.242 1.218-.367 1.854-.365 1.154 0 2.197.41 3.016 1.08l2.383-2.383c-1.452-1.266-3.314-2.047-5.399-2.047C9.883 2.79 8.816 3 7.821 3.41c-.995.41-1.899 1.014-2.66 1.775-.76.76-1.364 1.665-1.774 2.66-.41.995-.62 2.061-.617 3.138-.004 1.076.206 2.142.616 3.137.41.995 1.014 1.9 1.775 2.66.761.762 1.665 1.365 2.66 1.775.995.41 2.062.62 3.138.617 4.095 0 7.818-2.978 7.818-8.19 0-.483-.074-1.005-.185-1.49z"/>
</svg>
