<svg xmlns="http://www.w3.org/2000/svg" width="22" height="22" fill="none" viewBox="0 0 22 22">
    <g clip-path="url(#clip0)">
        <path fill="#0D4D66" fill-rule="evenodd" d="M22 3.95c-.824.365-1.698.605-2.592.71.942-.564 1.647-1.451 1.984-2.497-.886.527-1.855.897-2.866 1.097-.68-.726-1.58-1.207-2.561-1.369-.981-.162-1.988.005-2.865.474-.876.47-1.573 1.215-1.983 2.12-.41.907-.509 1.923-.282 2.89-1.795-.09-3.55-.555-5.154-1.368-1.602-.813-3.016-1.954-4.15-3.349-.4.69-.612 1.473-.61 2.27 0 1.566.796 2.948 2.008 3.758-.717-.024-1.418-.217-2.045-.564v.055c0 1.042.36 2.053 1.02 2.86.66.806 1.579 1.36 2.6 1.566-.664.18-1.361.207-2.038.078.288.897.85 1.682 1.606 2.244.756.562 1.669.873 2.61.891-1.599 1.254-3.573 1.935-5.605 1.932-.365 0-.724-.021-1.077-.063 2.064 1.326 4.466 2.03 6.919 2.028 8.302 0 12.842-6.878 12.842-12.842 0-.196-.005-.39-.013-.583.883-.64 1.646-1.431 2.252-2.338z" clip-rule="evenodd"/>
    </g>
    <defs>
        <clipPath id="clip0">
            <path fill="#fff" d="M0 0H22V22H0z"/>
        </clipPath>
    </defs>
</svg>
