<?xml version="1.0" standalone="no"?>
<!DOCTYPE svg PUBLIC "-//W3C//DTD SVG 1.1//EN" "http://www.w3.org/Graphics/SVG/1.1/DTD/svg11.dtd" >
<svg xmlns="http://www.w3.org/2000/svg" xmlns:xlink="http://www.w3.org/1999/xlink" version="1.1">
<metadata>
Created by FontForge 20190801 at Tue Oct 24 00:00:00 2000
 By www-data
Copyright 2000 Agfa Monotype Corporation. All Rights Reserved.
</metadata>
<defs>
<font id="helveticaneuecondensedbolditalic" horiz-adv-x="1024" >
  <font-face 
    font-family="helveticaneuecondensedbolditalic"
    font-weight="700"
    font-style="italic"
    font-stretch="condensed"
    units-per-em="2048"
    panose-1="2 11 8 6 2 2 2 10 2 4"
    ascent="1638"
    descent="-410"
    x-height="1152"
    cap-height="1664"
    bbox="-352 -592 2334.16 2099"
    underline-thickness="102"
    underline-position="-256"
    slope="-11.97"
    unicode-range="U+0020-FB02"
  />
<missing-glyph horiz-adv-x="1022" 
d="M76 0v1154h870v-1154h-870zM332 256h358v642h-358v-642z" />
    <glyph glyph-name=".notdef" horiz-adv-x="1022" 
d="M76 0v1154h870v-1154h-870zM332 256h358v642h-358v-642z" />
    <glyph glyph-name=".null" horiz-adv-x="0" 
 />
    <glyph glyph-name="nonmarkingreturn" horiz-adv-x="512" 
 />
    <glyph glyph-name="space" unicode=" " horiz-adv-x="512" 
 />
    <glyph glyph-name="space" unicode="&#xa0;" horiz-adv-x="512" 
 />
    <glyph glyph-name="exclam" unicode="!" horiz-adv-x="682" 
d="M337 397q60 498 86 623l110 516h270l-112 -525q-26 -123 -176 -614h-178zM207 0l57 270h270l-57 -270h-270z" />
    <glyph glyph-name="quotedbl" unicode="&#x22;" horiz-adv-x="682" 
d="M347 1512h245l-119 -560h-245zM721 1512h245l-119 -560h-245z" />
    <glyph glyph-name="numbersign" unicode="#" 
d="M163 472l43 201h200v0l61 192v0h-172l43 201h194v0l148 438v0v0h170l-146 -438v0h147v0l144 438h175l-146 -438v0h152l-43 -201h-176v0l-60 -192v0h146l-43 -201h-169v0l-157 -472h-175l157 472v0h-148v0l-159 -472v0v0h-170v0l158 472v0h-174zM576 673v0h143v0l65 192v0
h-145v0z" />
    <glyph glyph-name="dollar" unicode="$" 
d="M173 457h242q-29 -137 -20 -200q10 -62 87 -85l98 462q-175 116 -228 226q-52 111 -18 271q34 162 152 263t281 118v0l27 128h125l-27 -128q173 -17 241 -111q68 -93 23 -305h-242q20 91 8 140q-10 50 -74 72l-87 -414q198 -130 255 -233t28 -241q-47 -221 -164 -325
q-116 -104 -317 -134l-48 -224h-125l48 224v0q-168 9 -245 118q-77 110 -40 283zM695 585l-88 -413q131 32 165 190q30 142 -77 223zM723 1308q-48 -5 -89 -50t-54 -106q-29 -138 67 -203z" />
    <glyph glyph-name="percent" unicode="%" horiz-adv-x="1706" 
d="M425 -31l1020 1559h143l-1020 -1559h-143zM1099 375q50 236 144 308q94 73 251 73q165 0 222 -80q59 -79 13 -295q-52 -243 -151 -312t-245 -69q-171 0 -226 82q-53 83 -8 293zM1306 425l-20 -97q-24 -109 -2 -145q22 -35 81 -35q64 0 98 37q35 37 58 144l20 97
q22 104 5 143q-18 39 -81 39q-62 0 -99 -38t-60 -145zM300 1115q49 229 143 305t253 76q154 0 219 -72t16 -303q-47 -219 -139 -300q-91 -81 -257 -81q-172 0 -226 80q-54 81 -9 295zM508 1165l-21 -97q-23 -109 -1 -145q22 -35 81 -35q64 0 98 37q35 37 58 144l20 97
q22 104 5 143q-18 39 -81 39q-62 0 -99 -38t-60 -145z" />
    <glyph glyph-name="ampersand" unicode="&#x26;" horiz-adv-x="1366" 
d="M610 905v0l-43 134q-24 107 -5 198q34 157 151 244t271 87v0q137 0 212 -90q76 -89 47 -230q-49 -228 -316 -380v0l120 -329v0q46 88 70 155q25 67 37 122h229q-65 -306 -245 -515v0l118 -309h-309l-33 105v0q-171 -129 -375 -129q-187 0 -274 132q-86 132 -44 329
q59 277 389 476zM689 705v0q-50 -21 -114 -86q-63 -64 -81 -147q-21 -98 16 -185t126 -87q102 0 207 81v0zM852 1062v0q138 92 156 180q12 54 -9 88t-65 34q-99 0 -120 -100q-8 -39 7 -96q15 -56 31 -106z" />
    <glyph glyph-name="quotesingle" unicode="'" horiz-adv-x="512" 
d="M449 1512h245l-119 -560h-245z" />
    <glyph glyph-name="parenleft" unicode="(" horiz-adv-x="682" 
d="M347 -404q-106 292 -123 505q-18 213 46 516q116 547 493 959h169q-152 -205 -246 -460t-161 -569q-62 -293 -64 -491q-2 -199 55 -460h-169z" />
    <glyph glyph-name="parenright" unicode=")" horiz-adv-x="682" 
d="M609 1576q106 -292 123 -505q18 -213 -46 -516q-116 -547 -493 -959h-169q152 205 246 460t161 569q62 293 64 491q2 199 -55 460h169z" />
    <glyph glyph-name="asterisk" unicode="*" 
d="M414 1196l84 156l207 -64l48 224h165l-48 -224l231 64l21 -160l-229 -56v0l89 -196l-155 -97l-85 192v0l-182 -192l-115 97l181 190v0z" />
    <glyph glyph-name="plus" unicode="+" 
d="M179 616h352l81 384h225l-81 -384h352l-48 -225h-352l-82 -384h-225l82 384h-352z" />
    <glyph glyph-name="comma" unicode="," horiz-adv-x="682" 
d="M161 -215v0q60 4 113 56t69 127l7 32h-143l58 272h270l-56 -263q-59 -278 -336 -313v0z" />
    <glyph glyph-name="glyph14" unicode="-" horiz-adv-x="682" 
d="M257 758h480l-50 -236h-480z" />
    <glyph glyph-name="period" unicode="." horiz-adv-x="682" 
d="M264 270h270l-57 -270h-270z" />
    <glyph glyph-name="slash" unicode="/" horiz-adv-x="569" 
d="M-62 -192l846 1728h177l-846 -1728h-177z" />
    <glyph glyph-name="zero" unicode="0" 
d="M187 416l146 690q91 429 510 429q412 0 319 -440l-144 -682q-95 -444 -507 -444q-419 0 -324 447zM618 1096l-146 -688q-45 -214 77 -214q135 0 181 218l145 684q46 214 -83 214q-128 0 -174 -214z" />
    <glyph glyph-name="one" unicode="1" 
d="M349 1268q356 0 483 260h211l-324 -1528h-287l226 1064h-352z" />
    <glyph glyph-name="two" unicode="2" 
d="M67 0q52 216 122 346q71 131 322 347l165 142q105 88 145 143q42 55 63 153q38 179 -101 179q-99 0 -141 -62q-41 -61 -76 -225v0h-269v0l13 62q95 450 517 450q216 0 298 -115q83 -114 47 -283q-48 -228 -279 -421l-268 -228q-182 -153 -205 -263v0h537l-48 -225h-842v0
z" />
    <glyph glyph-name="three" unicode="3" 
d="M167 513h269v0q-39 -185 -23 -252q17 -67 117 -67q97 0 136 70t65 195q27 125 2 185q-26 61 -238 61v0l48 225v0q154 0 219 41q65 42 92 171q36 168 -98 168q-133 0 -160 -128l-21 -95h-269l12 56q83 392 484 392q413 0 331 -389q-30 -139 -105 -224q-74 -85 -174 -98
q234 -34 163 -371q-103 -484 -548 -484q-418 0 -323 446l21 98v0z" />
    <glyph glyph-name="four" unicode="4" 
d="M163 536l671 968h318l-205 -966h130l-48 -225h-130l-66 -313h-287l66 313h-497zM374 538v0h286l133 626v0z" />
    <glyph glyph-name="five" unicode="5" 
d="M179 481h269v0q-34 -160 -15 -224q21 -63 113 -63q154 0 209 260l22 103q55 260 -112 260q-69 0 -116 -39q-47 -38 -54 -72h-255l209 798h744l-48 -225h-524v0l-87 -325q99 88 244 88q208 0 269 -136q62 -135 6 -401q-60 -283 -192 -410q-131 -126 -350 -126
q-252 0 -322 115t-10 397v0z" />
    <glyph glyph-name="six" unicode="6" 
d="M561 917q93 109 242 109q188 0 248 -118q59 -118 7 -365q-62 -292 -183 -433q-120 -141 -368 -141q-243 0 -305 146q-61 147 -3 423l81 381q70 331 196 473q127 143 380 143q205 0 273 -95t42 -220l-8 -37h-264q10 71 -13 99t-66 28q-175 0 -227 -246zM493 576l-28 -133
q-29 -136 -10 -193q19 -56 96 -56q75 0 119 44q46 44 71 162l45 214q40 187 -101 187q-144 0 -192 -225z" />
    <glyph glyph-name="seven" unicode="7" 
d="M257 0q38 179 248 596q212 418 439 683v0h-609l48 225h864l-44 -206q-258 -335 -422 -690t-228 -608h-296z" />
    <glyph glyph-name="eight" unicode="8" 
d="M477 830q-84 42 -114 120q-28 79 5 233q32 154 159 253t318 99q396 0 315 -383q-33 -156 -94 -223t-172 -105q100 -28 145 -101q47 -73 2 -286q-100 -468 -525 -468q-228 0 -309 109q-82 110 -31 352q39 185 110 269t191 131zM478 502l-25 -118q-40 -190 108 -190
q141 0 186 210l25 118q42 198 -99 198q-148 0 -195 -218zM618 1120q-41 -196 96 -196q134 0 179 213q37 173 -95 173q-139 0 -180 -190z" />
    <glyph glyph-name="nine" unicode="9" 
d="M166 321h264q-21 -127 79 -127q89 0 145 60q56 61 82 185l31 148q-93 -109 -241 -109q-189 0 -249 117q-59 118 -6 366q64 304 188 439t362 135q243 0 305 -147t4 -422l-81 -382q-70 -331 -197 -473q-128 -142 -380 -142q-182 0 -263 86q-81 87 -51 228zM588 1104
l-46 -215q-39 -186 102 -186q144 0 192 225l28 132q29 136 9 193q-19 57 -95 57t-121 -45q-44 -44 -69 -161z" />
    <glyph glyph-name="colon" unicode=":" horiz-adv-x="569" 
d="M207 270h270l-57 -270h-270zM391 1138h270l-57 -270h-270z" />
    <glyph glyph-name="semicolon" unicode=";" horiz-adv-x="569" 
d="M104 -215v0q60 4 113 56t69 127l7 32h-143l58 272h270l-56 -263q-59 -278 -336 -313v0zM391 1138h270l-57 -270h-270z" />
    <glyph glyph-name="less" unicode="&#x3c;" 
d="M113 624l945 460l-48 -229l-673 -329v0l530 -346l-49 -229l-748 469z" />
    <glyph glyph-name="equal" unicode="=" 
d="M137 421h912l-47 -225h-912zM222 822h912l-47 -225h-912z" />
    <glyph glyph-name="greater" unicode="&#x3e;" 
d="M1015 411l-945 -460l48 229l673 329v0l-530 346l49 229l748 -469z" />
    <glyph glyph-name="question" unicode="?" 
d="M352 270h270l-57 -270h-270zM347 1137l16 75q35 163 158 263q123 101 318 101q181 0 268 -99q88 -99 49 -282q-34 -162 -148 -281t-228 -214q-112 -94 -145 -250l-7 -36h-241l9 42q47 223 180 351l165 158q105 101 132 229q18 86 -3 128q-20 43 -79 43q-75 0 -117 -40
q-42 -39 -74 -188h-253z" />
    <glyph glyph-name="at" unicode="@" horiz-adv-x="1706" 
d="M1829 934q-60 -283 -264 -446q-109 -90 -221 -134q-112 -43 -173 -43q-97 0 -75 104q4 21 8 40q-151 -128 -279 -128q-152 0 -224 105t-36 274q41 194 193 336q152 143 337 143q182 0 234 -128l47 113h200l-226 -586l-23 -60q-7 -32 24 -32q47 0 159 109q113 109 150 288
q54 251 -82 393q-135 143 -387 143q-285 0 -506 -181t-281 -467q-62 -293 93 -476q156 -182 446 -182q215 0 460 185h196q-318 -336 -702 -336q-351 0 -538 234t-114 576q72 339 353 568q282 230 628 230q340 0 496 -205q156 -204 107 -437zM1209 799q17 80 -10 138
q-28 59 -96 59q-98 0 -190 -78q-93 -78 -119 -203q-20 -93 18 -146q37 -53 113 -53q88 0 173 80q86 81 111 203z" />
    <glyph glyph-name="A" unicode="A" horiz-adv-x="1139" 
d="M18 0l694 1536h385l26 -1536h-309l7 392v0h-334v0l-160 -392h-309zM580 617v0h245v0l18 631v0zM932 1664v0v0zM972 0v0v0zM332 1568v0v0z" />
    <glyph glyph-name="B" unicode="B" horiz-adv-x="1139" 
d="M134 0l326 1536h496q367 0 283 -394q-52 -248 -256 -321q219 -41 152 -359q-98 -462 -490 -462h-511zM469 225h145q95 0 146 55q52 55 80 186q27 130 -11 176q-37 46 -148 46h-114zM615 913h96q116 0 163 44q48 44 76 175q19 90 -1 134q-19 45 -107 45h-143z" />
    <glyph glyph-name="C" unicode="C" horiz-adv-x="1139" 
d="M876 544h287q-56 -268 -187 -422t-370 -154q-282 0 -361 146q-78 147 -6 485l69 325q77 363 221 503q144 141 393 141q234 0 312 -125q77 -125 22 -387h-282q30 142 16 211q-15 69 -96 69q-203 0 -271 -320l-105 -498q-37 -172 0 -245t137 -73q76 0 129 77q52 78 92 267z
M948 1664v0v0zM620 0v0v0z" />
    <glyph glyph-name="D" unicode="D" horiz-adv-x="1251" 
d="M148 0l326 1536h590q136 0 222 -106q63 -73 65 -210q2 -136 -61 -434q-63 -295 -134 -450t-184 -247q-112 -89 -291 -89h-533zM483 225h133q161 0 233 108q72 109 143 443q67 317 46 426t-146 109h-179zM897 1664v0v0zM332 1568v0v0z" />
    <glyph glyph-name="E" unicode="E" 
d="M130 0l326 1536h815l-48 -225h-528l-83 -390h488l-47 -225h-488l-100 -471h528l-48 -225h-815zM897 1664v0v0zM802 0v0v0zM332 1568v0v0z" />
    <glyph glyph-name="F" unicode="F" 
d="M148 0l326 1536h815l-48 -225h-528l-83 -390h497l-47 -225h-497l-148 -696h-287z" />
    <glyph glyph-name="G" unicode="G" horiz-adv-x="1251" 
d="M769 599l48 225h470l-175 -824h-215l41 192q-63 -111 -153 -168q-89 -56 -205 -56q-257 0 -336 141q-79 142 -5 490l66 310q81 382 229 520q149 139 416 139q268 0 357 -124t33 -388v0h-287v0q31 145 0 212q-31 68 -153 68q-106 0 -175 -83q-69 -82 -102 -237l-105 -498
q-68 -318 137 -318q122 0 193 102q72 102 113 297h-192zM967 1664v0v0zM610 0v0v0z" />
    <glyph glyph-name="H" unicode="H" horiz-adv-x="1251" 
d="M465 1536h287l-129 -607h401l129 607h287l-326 -1536h-287l149 704h-401l-149 -704h-287z" />
    <glyph glyph-name="I" unicode="I" horiz-adv-x="569" 
d="M469 1536h287l-326 -1536h-287zM642 1664v0v0zM317 0v0v0zM332 1568v0v0z" />
    <glyph glyph-name="J" unicode="J" horiz-adv-x="909" 
d="M118 496h287l-39 -187q-24 -109 70 -109q99 0 129 141l254 1195h287l-255 -1201q-41 -193 -153 -280q-113 -87 -309 -87q-165 0 -256 82q-92 83 -45 302q15 72 19 93q5 22 11 51z" />
    <glyph glyph-name="K" unicode="K" horiz-adv-x="1139" 
d="M139 0l326 1536h287l-140 -660v0l489 660h323l-522 -666v0l214 -870h-323l-142 606v0l-132 -168l-93 -438h-287zM628 0v0v0z" />
    <glyph glyph-name="L" unicode="L" 
d="M465 1536h287l-278 -1311h528l-48 -225h-815zM635 1664v0v0zM547 0v0v0zM332 1568v0v0z" />
    <glyph glyph-name="M" unicode="M" horiz-adv-x="1593" 
d="M465 1536h457l9 -942v0l404 942h457l-326 -1536h-287l281 1326v0l-570 -1326h-175l-8 1326v0l-281 -1326h-287z" />
    <glyph glyph-name="N" unicode="N" horiz-adv-x="1251" 
d="M465 1536h300l182 -972v0l206 972h287l-326 -1536h-300l-187 948v0l-201 -948h-287zM980 1664v0v0zM627 0v0v0zM332 1568v0v0z" />
    <glyph glyph-name="O" unicode="O" horiz-adv-x="1251" 
d="M252 599l65 306q80 379 226 521t414 142q300 0 367 -160q66 -159 -7 -503l-65 -308q-73 -340 -212 -485q-139 -144 -418 -144q-270 0 -358 138q-87 138 -12 493zM636 1016l-105 -498q-68 -318 131 -318q209 0 274 306l104 489q72 341 -132 341t-272 -320zM978 1664v0v0z
" />
    <glyph glyph-name="P" unicode="P" horiz-adv-x="1139" 
d="M465 1536h575q179 0 249 -112q71 -111 27 -322q-98 -462 -557 -462h-197l-136 -640h-287zM704 1311l-95 -446h145q105 0 171 51q66 52 96 191q24 113 -11 158q-34 46 -161 46h-145z" />
    <glyph glyph-name="Q" unicode="Q" horiz-adv-x="1251" 
d="M1070 142v0l125 -152l-172 -134l-130 154v0q-102 -42 -272 -42q-260 0 -354 131q-93 132 -15 500l65 306q75 356 212 509q137 154 428 154q269 0 355 -139q87 -138 4 -529l-65 -308q-66 -308 -181 -450zM875 384l12 -13v0q29 40 49 134l104 490q35 165 10 253t-142 88
q-204 0 -272 -320l-105 -498q-68 -318 133 -318q36 0 68 4v0l-41 50z" />
    <glyph glyph-name="R" unicode="R" horiz-adv-x="1251" 
d="M1158 0h-314q-14 80 49 376q39 185 2 236q-37 52 -229 52h-104l-141 -664h-287l326 1536h548q230 0 307 -99q78 -99 41 -271q-71 -336 -320 -369q110 -17 152 -88t16 -197l-26 -120q-65 -308 -14 -364zM1044 1110q24 113 -7 157t-130 44h-208l-90 -422h208q180 0 227 221
zM975 1664v0v0zM629 0v0v0zM332 1568v0v0z" />
    <glyph glyph-name="S" unicode="S" horiz-adv-x="1139" 
d="M227 544h287v0l-19 -89q-54 -255 128 -255q163 0 201 176q20 95 -27 155t-190 164q-148 108 -214 214t-34 254q85 405 537 405q241 0 317 -118q78 -117 22 -378v0h-278v0l11 51q45 213 -121 213q-156 0 -186 -144q-17 -79 19 -125q38 -45 193 -166q168 -127 228 -226
q61 -98 27 -258q-44 -211 -189 -330q-144 -119 -366 -119q-468 0 -371 456l25 120v0zM913 1664v0v0zM581 0v0v0z" />
    <glyph glyph-name="T" unicode="T" 
d="M358 1536h959l-48 -225h-336l-278 -1311h-287l278 1311h-336zM865 1664v0v0zM512 0v0v0zM332 1568v0v0z" />
    <glyph glyph-name="U" unicode="U" horiz-adv-x="1251" 
d="M465 1536h287l-224 -1054q-33 -155 1 -219q33 -63 135 -63q110 0 170 59t95 223l224 1054h287l-229 -1078q-54 -253 -186 -372q-132 -118 -402 -118q-269 0 -356 113q-87 114 -31 377zM980 1664v0v0zM790 0v0v0zM332 1568v0v0z" />
    <glyph glyph-name="V" unicode="V" horiz-adv-x="1139" 
d="M638 270v0l480 1266h309l-662 -1536h-381l-10 1536h309z" />
    <glyph glyph-name="W" unicode="W" horiz-adv-x="1706" 
d="M374 1536h296l-70 -1176v0l462 1176h237l-24 -1182v0l416 1182h296l-614 -1536h-345l26 954v0l-373 -954h-345z" />
    <glyph glyph-name="X" unicode="X" horiz-adv-x="1139" 
d="M22 0l548 786v0l-209 750h323l117 -480v0l312 480h323l-535 -756v0l222 -780h-320l-125 510v0l-342 -510h-314z" />
    <glyph glyph-name="Y" unicode="Y" horiz-adv-x="1139" 
d="M342 1536h314l109 -588v0l350 588h314l-587 -882l-139 -654h-287l139 654zM913 1664v0v0zM332 1568v0v0z" />
    <glyph glyph-name="Z" unicode="Z" 
d="M67 0l48 228l796 1083v0h-535l48 225h849l-49 -228l-800 -1083v0h589l-48 -225h-898zM875 1664v0v0zM332 1568v0v0z" />
    <glyph glyph-name="bracketleft" unicode="[" horiz-adv-x="682" 
d="M436 1536h400l-33 -156h-176l-301 -1418h176l-33 -156h-400z" />
    <glyph glyph-name="backslash" unicode="\" horiz-adv-x="512" 
d="M366 -192l-112 1728h177l112 -1728h-177z" />
    <glyph glyph-name="bracketright" unicode="]" horiz-adv-x="682" 
d="M469 -194h-400l33 156h176l301 1418h-176l33 156h400z" />
    <glyph glyph-name="asciicircum" unicode="^" 
d="M368 667l-187 96l533 779h246l203 -779l-229 -96l-161 574v0z" />
    <glyph glyph-name="underscore" unicode="_" 
d="M-54 -254l22 103h1024l-22 -103h-1024z" />
    <glyph glyph-name="grave" unicode="`" horiz-adv-x="682" 
d="M580 1296l-241 304h317l131 -304h-207zM601 1296v0v0z" />
    <glyph glyph-name="a" unicode="a" 
d="M268 814q43 205 159 286q118 82 324 82q202 0 274 -76q74 -76 37 -252l-148 -697q-18 -86 -12 -157h-254q-8 38 3 91q3 15 13 39q-77 -87 -146 -124q-67 -36 -132 -36q-305 0 -233 343q33 156 127 236q95 80 296 156q111 39 163 71q52 33 65 95q12 59 -8 83
q-19 24 -90 24q-89 0 -127 -34q-37 -34 -57 -130h-254zM743 606l-178 -103q-74 -41 -101 -76q-28 -34 -43 -105q-31 -148 96 -148q135 0 173 179zM756 1278v0v0zM721 0v0v0z" />
    <glyph glyph-name="b" unicode="b" 
d="M133 0l326 1536h266l-106 -498q96 144 263 144q132 0 188 -85t7 -313l-88 -414q-84 -400 -354 -400q-172 0 -220 160l-28 -130h-254zM558 752l-76 -362q-46 -216 83 -216q117 0 161 207l84 398q25 119 5 159q-21 40 -82 40q-127 0 -175 -226z" />
    <glyph glyph-name="c" unicode="c" horiz-adv-x="909" 
d="M659 450h266l-22 -107q-79 -373 -444 -373t-276 421l81 383q87 408 446 408q185 0 258 -92q74 -91 41 -244l-20 -96v0h-266v0l27 125q21 103 -75 103q-102 0 -141 -186l-9 -40l-84 -396q-38 -182 68 -182q92 0 130 182zM750 1278v0v0zM468 0v0v0z" />
    <glyph glyph-name="d" unicode="d" 
d="M840 1038l106 498h266l-326 -1536h-266l28 130q-104 -160 -262 -160q-137 0 -193 87q-54 87 -7 311l84 394q49 235 141 327q93 93 222 93q176 0 207 -144zM537 771l-88 -416q-38 -181 76 -181q132 0 180 229l78 368q44 207 -85 207q-117 0 -150 -155z" />
    <glyph glyph-name="e" unicode="e" 
d="M485 522v0l-36 -166q-19 -94 3 -138q24 -44 96 -44q125 0 158 158l12 54h266q-88 -416 -457 -416q-221 0 -300 109t-26 360l66 313q92 430 483 430q199 0 282 -89t18 -394l-37 -177v0h-528zM528 726h262v0l23 109q17 80 -8 111q-25 32 -99 32q-75 0 -109 -42
q-33 -42 -54 -140zM785 1278v0v0zM610 0v0v0z" />
    <glyph glyph-name="f" unicode="f" horiz-adv-x="569" 
d="M292 1152h96l26 123q30 138 103 198q74 61 233 61h97l-45 -213q-26 12 -56 12q-53 0 -65 -54l-27 -127h112l-41 -195h-112l-203 -957h-266l203 957h-96z" />
    <glyph glyph-name="g" unicode="g" 
d="M117 -130h266q-8 -65 80 -65h12q125 0 163 181l30 142q-110 -158 -283 -158q-262 0 -178 398l88 416q46 216 132 307q88 91 228 91q168 0 190 -161l28 131h278l-237 -1117q-44 -208 -160 -315q-117 -106 -310 -106q-210 0 -278 65q-68 66 -49 191zM559 774l-85 -401
q-42 -199 69 -199q123 0 171 229l77 361q45 214 -76 214q-113 0 -144 -149zM762 1278v0v0z" />
    <glyph glyph-name="h" unicode="h" 
d="M451 1536h266l-109 -514q111 160 280 160q119 0 176 -74q58 -73 28 -217l-189 -891h-266l168 791q21 101 5 144q-15 43 -80 43q-132 0 -175 -206l-164 -772h-266z" />
    <glyph glyph-name="i" unicode="i" horiz-adv-x="569" 
d="M394 1152h266l-244 -1152h-266zM476 1539h266l-51 -243h-266zM330 0v0v0z" />
    <glyph glyph-name="j" unicode="j" horiz-adv-x="569" 
d="M406 1152h266l-274 -1295q-26 -120 -94 -184q-69 -63 -241 -63q-52 0 -83 3l44 207h37q63 0 78 73zM437 1296l51 243h266l-51 -243h-266z" />
    <glyph glyph-name="k" unicode="k" horiz-adv-x="909" 
d="M100 0l326 1536h266l-179 -843v0l350 459h291l-396 -473v0l144 -679h-295l-70 468v0l-97 -117l-74 -351h-266zM501 0v0v0z" />
    <glyph glyph-name="l" unicode="l" horiz-adv-x="569" 
d="M150 0l326 1536h266l-326 -1536h-266zM582 1632v0v0zM277 0v0v0z" />
    <glyph glyph-name="m" unicode="m" horiz-adv-x="1593" 
d="M377 1152h266l-27 -130q112 160 301 160q106 0 157 -48q53 -47 49 -112q32 58 109 109q78 51 191 51q130 0 191 -67q63 -67 39 -182l-198 -933h-266l165 776q22 107 7 154q-15 48 -82 48q-80 0 -124 -53q-43 -52 -67 -165l-161 -760h-266l168 791q22 103 2 145
q-19 42 -94 42q-66 0 -107 -40t-67 -166l-164 -772h-266z" />
    <glyph glyph-name="n" unicode="n" 
d="M125 0l244 1152h266l-27 -130q111 160 280 160q119 0 176 -74q58 -73 28 -217l-189 -891h-266l168 791q21 101 5 144q-15 43 -80 43q-132 0 -175 -206l-164 -772h-266zM818 1278v0v0zM514 0v0v0z" />
    <glyph glyph-name="o" unicode="o" 
d="M214 500l28 133q73 343 196 446t329 103q215 0 285 -108q71 -108 6 -412l-29 -138q-70 -332 -180 -443q-109 -111 -339 -111q-238 0 -300 112q-61 113 4 418zM542 793l-90 -424q-25 -121 -2 -158t104 -37q84 0 118 41t58 154l90 425q39 184 -93 184q-77 0 -121 -43
q-43 -43 -64 -142zM784 1278v0v0z" />
    <glyph glyph-name="p" unicode="p" 
d="M620 1022q103 160 262 160q136 0 191 -88q55 -87 8 -310l-89 -423q-83 -391 -357 -391q-89 0 -139 32q-49 33 -69 112l-105 -498h-266l325 1536h266zM562 749l-78 -369q-44 -206 85 -206q117 0 161 207l89 422q20 93 -2 134t-75 41q-132 0 -180 -229z" />
    <glyph glyph-name="q" unicode="q" 
d="M854 1022l27 130h266l-325 -1536h-266l109 514q-62 -87 -124 -124q-60 -36 -154 -36q-268 0 -184 398l88 416q46 216 134 307q89 91 233 91q172 0 196 -160zM555 774l-85 -401q-42 -199 75 -199q129 0 177 229l77 361q45 214 -84 214q-117 0 -151 -164z" />
    <glyph glyph-name="r" unicode="r" horiz-adv-x="682" 
d="M125 0l244 1152h258l-43 -204q66 108 146 171q81 63 184 63v0l-67 -313q-29 3 -56 3q-215 0 -256 -194l-144 -678h-266zM694 1278v0v0zM264 0v0v0z" />
    <glyph glyph-name="s" unicode="s" horiz-adv-x="909" 
d="M146 386h266q-12 -38 -19 -71q-30 -141 83 -141q117 0 139 102q12 61 -22 94q-33 33 -89 78l-127 106q-167 137 -121 352q59 276 446 276q193 0 264 -94t29 -290v0h-266v0q26 122 -1 151q-26 29 -82 29q-109 0 -129 -95q-9 -44 12 -75q22 -30 75 -73l165 -132
q158 -127 121 -301q-70 -332 -447 -332q-389 0 -312 364q7 34 15 52zM708 1278v0v0zM440 0v0v0z" />
    <glyph glyph-name="t" unicode="t" horiz-adv-x="569" 
d="M232 957l41 195h108l68 320h266l-68 -320h112l-41 -195h-112l-147 -691q-4 -23 0 -47q5 -24 59 -24q17 0 39 3l-44 -207q-68 -9 -141 -9q-117 0 -168 47t-27 159l163 769h-108zM338 0v0v0z" />
    <glyph glyph-name="u" unicode="u" 
d="M365 1152h266l-173 -818q-34 -160 73 -160q123 0 167 206l163 772h266l-244 -1152h-254l38 178q-109 -208 -296 -208q-139 0 -183 72q-43 73 -10 228zM785 1278v0v0zM755 0v0v0zM251 1182v0v0z" />
    <glyph glyph-name="v" unicode="v" horiz-adv-x="909" 
d="M515 279v0l347 873h275l-516 -1152h-333l-28 1152h287z" />
    <glyph glyph-name="w" unicode="w" horiz-adv-x="1366" 
d="M265 1152h279l-65 -887v0l330 887h220l-32 -887v0l310 887h266l-484 -1152h-291l21 670v0l-263 -670h-295z" />
    <glyph glyph-name="x" unicode="x" horiz-adv-x="909" 
d="M17 0l424 585v0l-168 567h312l58 -279v0l187 279h295l-408 -562v0l168 -590h-300l-65 315v0l-199 -315h-304z" />
    <glyph glyph-name="y" unicode="y" horiz-adv-x="909" 
d="M78 -387l44 207q23 -3 52 -3q61 0 87 13q26 14 33 46v0v0q9 44 6 109l-40 1167h279l-16 -828v0l331 828h270l-577 -1288q-64 -140 -139 -200q-76 -60 -209 -60q-41 0 -121 9zM739 1278v0v0zM251 1182v0v0z" />
    <glyph glyph-name="z" unicode="z" horiz-adv-x="797" 
d="M46 0l44 207l561 741v0h-396l43 204h696l-40 -189l-582 -759v0h421l-43 -204h-704zM687 1278v0v0zM251 1182v0v0z" />
    <glyph glyph-name="braceleft" unicode="{" horiz-adv-x="561" 
d="M61 664q95 18 140 73q47 55 70 162l78 370q27 127 97 197t208 70h168v0q-107 -23 -153 -81q-44 -57 -62 -146l-83 -389q-21 -100 -68 -164q-45 -63 -160 -88v0q86 -13 116 -76q29 -63 1 -196l-78 -366q-38 -181 120 -222v0h-148q-150 0 -195 67q-44 68 -8 237l68 323
q21 99 -3 153t-108 76v0z" />
    <glyph glyph-name="bar" unicode="|" horiz-adv-x="512" 
d="M488 1546h205l-434 -2048h-205z" />
    <glyph glyph-name="braceright" unicode="}" horiz-adv-x="561" 
d="M781 664q-81 -17 -134 -69q-52 -51 -75 -162l-69 -323q-35 -168 -110 -235q-73 -67 -223 -67h-147v0q176 41 215 225l77 364q31 146 88 201t145 70v0q-79 18 -115 66t-7 185l82 388q19 91 -1 149q-21 58 -117 80v0h167q128 0 175 -61q48 -61 17 -205l-78 -370
q-26 -120 4 -170t106 -66v0z" />
    <glyph glyph-name="asciitilde" unicode="~" 
d="M146 463q172 248 327 248q70 0 189 -64q120 -64 159 -64q48 0 91 44q43 45 86 100l85 -148q-65 -84 -142 -158q-75 -74 -168 -74q-77 0 -199 64q-120 64 -152 64q-51 0 -91 -39q-39 -38 -100 -121z" />
    <glyph glyph-name="exclamdown" unicode="&#xa1;" horiz-adv-x="682" 
d="M569 791q-60 -498 -86 -623l-110 -516h-270l112 525q26 123 176 614h178zM699 1188l-57 -270h-270l57 270h270z" />
    <glyph glyph-name="cent" unicode="&#xa2;" 
d="M347 -12v0q-188 65 -116 402l79 374q89 419 453 419q34 0 47 -4v0l79 196v0h96l-81 -210v0q207 -72 153 -327l-19 -87h-264l40 177v0l-291 -731v0q9 -7 41 -7q91 0 123 151l21 100h264l-16 -79q-85 -401 -443 -401q-50 0 -78 5v0l-84 -213v0h-94zM464 282v0l262 670v0
q-8 6 -20 6q-99 0 -134 -164l-108 -512v0z" />
    <glyph glyph-name="sterling" unicode="&#xa3;" 
d="M137 -31l-30 194q241 124 297 389q17 78 -6 137v0h-176l28 134h118v0q-52 138 -14 317q42 200 189 313q147 114 359 114v0q178 0 271 -97t53 -288l-21 -95v0h-264v0q28 129 12 192q-15 63 -114 63q-173 0 -220 -219q-18 -87 22 -300v0h300l-28 -134h-247v0q5 -63 -8 -124
q-48 -225 -334 -389v0q51 21 104 42q54 22 119 22q61 0 144 -20q83 -19 118 -19q68 0 186 64l11 -222q-130 -74 -276 -74q-77 0 -181 31q-104 32 -187 32q-85 0 -225 -63z" />
    <glyph glyph-name="currency" unicode="&#xa4;" 
d="M226 987l190 162l66 -89v0q141 78 270 78v0q118 0 239 -80v0l111 91l112 -162l-106 -89v0q48 -133 20 -265v0q-29 -140 -130 -260v0l66 -94l-181 -162l-72 91v0q-136 -80 -265 -80v0q-129 0 -245 78v0l-104 -89l-121 162l104 91v0q-40 139 -14 263v0q29 136 127 266v0z
M409 635q-22 -103 32 -184t152 -81q97 0 185 81q87 81 109 184q21 102 -32 181q-53 80 -150 80q-100 0 -188 -80q-87 -79 -108 -181z" />
    <glyph glyph-name="yen" unicode="&#xa5;" 
d="M768 535h224l-21 -102h-224l-27 -128h224l-22 -102h-224l-43 -203h-287l43 203h-224l22 102h224l27 128h-224l21 102h224l25 116l-214 877h318l107 -579v0l353 579h309l-586 -877z" />
    <glyph glyph-name="brokenbar" unicode="&#xa6;" horiz-adv-x="512" 
d="M290 -352h-205l153 720h205zM452 1376h205l-153 -720h-205z" />
    <glyph glyph-name="section" unicode="&#xa7;" 
d="M116 26v0h258v0q-41 -193 105 -193q49 0 91 31q43 31 58 104q18 84 -74 171l-234 221q-78 76 -100 147q-21 72 1 179q45 208 242 303q-34 33 -54 89q-21 56 2 161q31 148 155 242q125 95 308 95q168 0 242 -95q75 -94 37 -273v0h-253v0q35 165 -90 165q-122 0 -146 -113
q-11 -52 5 -88q18 -35 72 -87l224 -212q140 -131 102 -310q-42 -198 -233 -305q37 -39 54 -120t2 -154q-32 -150 -170 -254q-137 -104 -304 -104q-187 0 -265 101q-77 102 -35 299zM574 845q-29 -7 -67 -41q-36 -33 -46 -82q-15 -72 51 -139l198 -195q90 49 106 125
q15 73 -60 150z" />
    <glyph glyph-name="dieresis" unicode="&#xa8;" horiz-adv-x="682" 
d="M348 1564h260l-50 -236h-260zM752 1564h260l-50 -236h-260zM623 1296v0v0z" />
    <glyph glyph-name="copyright" unicode="&#xa9;" horiz-adv-x="1700" 
d="M850 -39q-342 0 -526 237t-113 573q70 326 354 561q286 236 619 236q332 0 518 -234q186 -233 116 -563q-71 -336 -355 -573q-283 -237 -613 -237zM361 764q-57 -270 93 -461q151 -191 422 -191q272 0 502 191q231 191 289 467q60 280 -100 463q-159 184 -400 184
q-282 0 -514 -187q-233 -186 -292 -466zM1462 936h-181q6 57 -36 107q-41 50 -133 50q-119 0 -209 -89q-89 -88 -117 -223q-30 -140 29 -231t171 -91q80 0 146 51t85 122h181q-45 -143 -172 -232q-126 -88 -270 -88q-203 0 -299 133q-95 133 -53 331q44 208 192 336
q149 128 354 128q157 0 237 -89q81 -88 75 -215z" />
    <glyph glyph-name="ordfeminine" unicode="&#xaa;" horiz-adv-x="614" 
d="M339 1343v0q27 130 104 177t210 47q251 0 209 -197l-87 -412q-14 -66 -9 -102v0v0h-164q-6 18 1 50q3 12 10 27q-87 -95 -183 -95q-207 0 -163 209q19 89 90 144q60 47 190 87q129 40 142 100q16 73 -68 73q-93 0 -116 -108h-166zM656 1220l-124 -64q-75 -38 -90 -111
q-19 -87 67 -87q91 0 114 109z" />
    <glyph glyph-name="guillemotleft" unicode="&#xab;" 
d="M621 909l-49 -232l-223 -163l155 -160l-49 -228l-259 288l44 207zM1005 909l-49 -232l-223 -163l155 -160l-49 -228l-259 288l44 207z" />
    <glyph glyph-name="logicalnot" unicode="&#xac;" 
d="M222 820h912l-129 -609h-225l81 384h-687z" />
    <glyph glyph-name="hyphen" unicode="&#xad;" horiz-adv-x="682" 
d="M257 758h480l-50 -236h-480z" />
    <glyph glyph-name="registered" unicode="&#xae;" horiz-adv-x="1700" 
d="M850 -39q-342 0 -526 237t-113 573q70 326 354 561q286 236 619 236q332 0 518 -234q186 -233 116 -563q-71 -336 -355 -573q-283 -237 -613 -237zM361 764q-57 -270 93 -461q151 -191 422 -191q272 0 502 191q231 191 289 467q60 280 -100 463q-159 184 -400 184
q-282 0 -514 -187q-233 -186 -292 -466zM589 328l184 872h434q154 0 228 -58q75 -58 43 -210q-48 -226 -288 -236l134 -368h-200l-115 368h-172l-78 -368h-170zM916 1072l-52 -248h274q147 0 175 135q24 113 -161 113h-236z" />
    <glyph glyph-name="macron" unicode="&#xaf;" horiz-adv-x="682" 
d="M308 1527h704l-32 -151h-704zM611 1296v0v0z" />
    <glyph glyph-name="macron" unicode="&#x2c9;" horiz-adv-x="682" 
d="M308 1527h704l-32 -151h-704zM611 1296v0v0z" />
    <glyph glyph-name="degree" unicode="&#xb0;" horiz-adv-x="819" 
d="M356 1225q29 136 138 219q110 84 231 84t194 -86q74 -85 45 -221q-27 -125 -134 -214q-106 -89 -232 -89q-129 0 -200 89q-70 89 -42 218zM516 1223q-13 -61 22 -102t96 -41q58 0 107 41t62 102q13 58 -20 100q-30 43 -88 43q-65 0 -117 -43q-49 -42 -62 -100z" />
    <glyph glyph-name="plusminus" unicode="&#xb1;" 
d="M90 196h929l-48 -225h-929zM212 773h352l58 272h225l-58 -272h352l-48 -225h-352l-57 -272h-225l57 272h-352z" />
    <glyph glyph-name="twosuperior" unicode="&#xb2;" horiz-adv-x="614" 
d="M161 608q25 119 73 207t211 215l110 88q106 83 124 171q25 115 -62 115q-104 0 -128 -113l-12 -56v0h-175v0l11 52q53 252 333 252q136 0 189 -71t33 -168q-30 -142 -175 -257l-171 -135q-121 -96 -135 -165v0h346l-29 -135h-543v0z" />
    <glyph glyph-name="threesuperior" unicode="&#xb3;" horiz-adv-x="614" 
d="M218 909h175v0l-11 -51q-29 -134 73 -134q56 0 85 32q30 32 54 147q18 82 -10 107q-26 26 -147 26v0l28 135v0q91 0 135 19q46 20 64 105q23 109 -61 109q-94 0 -112 -85l-11 -52h-175l8 40q49 232 309 232q273 0 222 -242q-37 -173 -179 -191q154 -21 113 -216
q-64 -301 -348 -301q-280 0 -227 252l15 68v0z" />
    <glyph glyph-name="acute" unicode="&#xb4;" horiz-adv-x="682" 
d="M451 1296l259 304h317l-369 -304h-207zM639 1296v0v0z" />
    <glyph glyph-name="mu" unicode="&#xb5;" 
d="M879 0h-262l38 179q-90 -179 -211 -179q-32 0 -58 16l-84 -400h-262l325 1536h262l-173 -818q-34 -161 75 -161q125 0 169 207l163 772h262z" />
    <glyph glyph-name="paragraph" unicode="&#xb6;" horiz-adv-x="1126" 
d="M317 -240l224 1056q-130 0 -207 83q-78 84 -39 266q43 204 164 287q121 84 318 84h628l-52 -242h-87l-325 -1534h-242l325 1534h-140l-325 -1534h-242z" />
    <glyph glyph-name="periodcentered" unicode="&#xb7;" horiz-adv-x="682" 
d="M288 376l57 271h271l-57 -271h-271z" />
    <glyph glyph-name="periodcentered" unicode="&#x2219;" horiz-adv-x="682" 
d="M288 376l57 271h271l-57 -271h-271z" />
    <glyph glyph-name="cedilla" unicode="&#xb8;" horiz-adv-x="682" 
d="M-22 -404l60 88q85 -37 170 -37q38 0 73 22q34 22 42 58q15 69 -87 69q-37 0 -77 -15l-37 41l160 178h106l-117 -127q36 15 81 15q87 0 126 -45t24 -117q-19 -88 -111 -137q-93 -49 -196 -49q-122 0 -217 56zM316 0v0v0z" />
    <glyph glyph-name="onesuperior" unicode="&#xb9;" horiz-adv-x="614" 
d="M402 1369q225 0 307 165h138l-196 -926h-186l135 638h-224z" />
    <glyph glyph-name="ordmasculine" unicode="&#xba;" horiz-adv-x="614" 
d="M300 1188l15 71q37 176 112 242t217 66q139 0 188 -61q50 -60 10 -246l-17 -83l-9 -42q-38 -176 -110 -237q-71 -60 -210 -60q-152 0 -198 62t-9 238zM505 1331l-53 -253q-25 -117 66 -117q86 0 111 119l54 253q23 111 -61 111h-12q-81 0 -100 -91z" />
    <glyph glyph-name="guillemotright" unicode="&#xbb;" 
d="M580 126l49 232l223 163l-155 160l49 228l259 -288l-44 -207zM196 126l49 232l223 163l-155 160l49 228l259 -288l-44 -207z" />
    <glyph glyph-name="onequarter" unicode="&#xbc;" horiz-adv-x="1536" 
d="M341 1369q225 0 307 165h138l-196 -926h-186l135 638h-224zM262 0l1191 1504h152l-1191 -1504h-152zM1001 319l430 587h206l-124 -587h87l-29 -135h-87l-40 -190h-186l40 190h-326zM1139 319v0h188l80 378v0z" />
    <glyph glyph-name="onehalf" unicode="&#xbd;" horiz-adv-x="1536" 
d="M324 1369q225 0 307 165h138l-196 -926h-186l135 638h-224zM215 0l1191 1504h152l-1191 -1504h-152zM987 -6q25 119 73 207t211 215l110 88q106 83 124 171q25 115 -62 115q-104 0 -128 -113l-12 -56v0h-175v0l11 52q53 252 333 252q136 0 189 -71t33 -168
q-30 -142 -175 -257l-171 -135q-121 -96 -135 -165v0h346l-29 -135h-543v0z" />
    <glyph glyph-name="threequarters" unicode="&#xbe;" horiz-adv-x="1536" 
d="M218 909h175v0l-11 -51q-29 -134 73 -134q56 0 85 32q30 32 54 147q18 82 -10 107q-26 26 -147 26v0l28 135v0q91 0 135 19q46 20 64 105q23 109 -61 109q-94 0 -112 -85l-11 -52h-175l8 40q49 232 309 232q273 0 222 -242q-37 -173 -179 -191q154 -21 113 -216
q-64 -301 -348 -301q-280 0 -227 252l15 68v0zM320 0l1191 1504h152l-1191 -1504h-152zM1021 319l430 587h206l-124 -587h87l-29 -135h-87l-40 -190h-186l40 190h-326zM1159 319v0h188l80 378v0z" />
    <glyph glyph-name="questiondown" unicode="&#xbf;" 
d="M872 914h-270l57 270h270zM877 47l-16 -75q-35 -163 -158 -263q-123 -101 -318 -101q-181 0 -268 99q-88 99 -49 282q34 162 148 281t228 214q112 94 145 250l7 36h241l-9 -42q-47 -223 -180 -351l-165 -158q-105 -101 -132 -229q-18 -86 3 -128q20 -43 79 -43
q75 0 117 40q42 39 74 188h253z" />
    <glyph glyph-name="Agrave" unicode="&#xc0;" horiz-adv-x="1139" 
d="M18 0l694 1536h385l26 -1536h-309l7 392v0h-334v0l-160 -392h-309zM580 617v0h245v0l18 631v0zM932 1664v0v0zM972 0v0v0zM332 1568v0v0zM911 1664l-241 304h317l131 -304h-207zM932 1664v0v0z" />
    <glyph glyph-name="Aacute" unicode="&#xc1;" horiz-adv-x="1139" 
d="M18 0l694 1536h385l26 -1536h-309l7 392v0h-334v0l-160 -392h-309zM580 617v0h245v0l18 631v0zM932 1664v0v0zM972 0v0v0zM332 1568v0v0zM744 1664l259 304h317l-369 -304h-207zM932 1664v0v0z" />
    <glyph glyph-name="Acircumflex" unicode="&#xc2;" horiz-adv-x="1139" 
d="M18 0l694 1536h385l26 -1536h-309l7 392v0h-334v0l-160 -392h-309zM580 617v0h245v0l18 631v0zM932 1664v0v0zM972 0v0v0zM332 1568v0v0zM572 1664l288 304h256l176 -304h-232l-98 169v0l-158 -169h-232zM932 1664v0v0z" />
    <glyph glyph-name="Atilde" unicode="&#xc3;" horiz-adv-x="1139" 
d="M18 0l694 1536h385l26 -1536h-309l7 392v0h-334v0l-160 -392h-309zM580 617v0h245v0l18 631v0zM932 1664v0v0zM972 0v0v0zM332 1568v0v0zM551 1678q28 105 113 179q86 75 177 75q61 0 149 -37q89 -36 116 -36q76 0 117 84h134q-95 -250 -292 -250q-52 0 -147 36
q-95 37 -125 37q-74 0 -116 -88h-126zM932 1664v0v0z" />
    <glyph glyph-name="Adieresis" unicode="&#xc4;" horiz-adv-x="1139" 
d="M18 0l694 1536h385l26 -1536h-309l7 392v0h-334v0l-160 -392h-309zM580 617v0h245v0l18 631v0zM932 1664v0v0zM972 0v0v0zM332 1568v0v0zM657 1932h260l-50 -236h-260zM1061 1932h260l-50 -236h-260zM932 1664v0v0z" />
    <glyph glyph-name="Aring" unicode="&#xc5;" horiz-adv-x="1139" 
d="M18 0l694 1536h385l26 -1536h-309l7 392v0h-334v0l-160 -392h-309zM580 617v0h245v0l18 631v0zM932 1664v0v0zM972 0v0v0zM332 1568v0v0zM761 1880q19 92 97 155q80 64 171 64q88 0 138 -66q50 -65 32 -153q-20 -90 -96 -153t-166 -63q-91 0 -144 64q-51 64 -32 152z
M863 1882q-11 -50 17 -85q28 -34 77 -34q46 0 87 35q43 36 53 84q10 45 -18 81q-26 37 -72 37q-51 0 -93 -36q-41 -35 -51 -82zM932 1664v0v0z" />
    <glyph glyph-name="AE" unicode="&#xc6;" horiz-adv-x="1593" 
d="M-45 0l918 1536h991l-48 -225h-496l-83 -390h465l-47 -225h-465l-100 -471h496l-48 -225h-783l83 392h-360v0l-214 -392h-309zM607 617v0h279l134 634h-60v0z" />
    <glyph glyph-name="Ccedilla" unicode="&#xc7;" horiz-adv-x="1139" 
d="M876 544h287q-56 -268 -187 -422t-370 -154q-282 0 -361 146q-78 147 -6 485l69 325q77 363 221 503q144 141 393 141q234 0 312 -125q77 -125 22 -387h-282q30 142 16 211q-15 69 -96 69q-203 0 -271 -320l-105 -498q-37 -172 0 -245t137 -73q76 0 129 77q52 78 92 267z
M948 1664v0v0zM620 0v0v0zM282 -404l60 88q85 -37 170 -37q38 0 73 22q34 22 42 58q15 69 -87 69q-37 0 -77 -15l-37 41l160 178h106l-117 -127q36 15 81 15q87 0 126 -45t24 -117q-19 -88 -111 -137q-93 -49 -196 -49q-122 0 -217 56zM620 0v0v0z" />
    <glyph glyph-name="Egrave" unicode="&#xc8;" 
d="M130 0l326 1536h815l-48 -225h-528l-83 -390h488l-47 -225h-488l-100 -471h528l-48 -225h-815zM897 1664v0v0zM802 0v0v0zM332 1568v0v0zM876 1664l-241 304h317l131 -304h-207zM897 1664v0v0z" />
    <glyph glyph-name="Eacute" unicode="&#xc9;" 
d="M130 0l326 1536h815l-48 -225h-528l-83 -390h488l-47 -225h-488l-100 -471h528l-48 -225h-815zM897 1664v0v0zM802 0v0v0zM332 1568v0v0zM709 1664l259 304h317l-369 -304h-207zM897 1664v0v0z" />
    <glyph glyph-name="Ecircumflex" unicode="&#xca;" 
d="M130 0l326 1536h815l-48 -225h-528l-83 -390h488l-47 -225h-488l-100 -471h528l-48 -225h-815zM897 1664v0v0zM802 0v0v0zM332 1568v0v0zM537 1664l288 304h256l176 -304h-232l-98 169v0l-158 -169h-232zM897 1664v0v0z" />
    <glyph glyph-name="Edieresis" unicode="&#xcb;" 
d="M130 0l326 1536h815l-48 -225h-528l-83 -390h488l-47 -225h-488l-100 -471h528l-48 -225h-815zM897 1664v0v0zM802 0v0v0zM332 1568v0v0zM622 1932h260l-50 -236h-260zM1026 1932h260l-50 -236h-260zM897 1664v0v0z" />
    <glyph glyph-name="Igrave" unicode="&#xcc;" horiz-adv-x="569" 
d="M469 1536h287l-326 -1536h-287zM642 1664v0v0zM317 0v0v0zM332 1568v0v0zM621 1664l-241 304h317l131 -304h-207zM642 1664v0v0z" />
    <glyph glyph-name="Iacute" unicode="&#xcd;" horiz-adv-x="569" 
d="M469 1536h287l-326 -1536h-287zM642 1664v0v0zM317 0v0v0zM332 1568v0v0zM454 1664l259 304h317l-369 -304h-207zM642 1664v0v0z" />
    <glyph glyph-name="Icircumflex" unicode="&#xce;" horiz-adv-x="569" 
d="M469 1536h287l-326 -1536h-287zM642 1664v0v0zM317 0v0v0zM332 1568v0v0zM282 1664l288 304h256l176 -304h-232l-98 169v0l-158 -169h-232zM642 1664v0v0z" />
    <glyph glyph-name="Idieresis" unicode="&#xcf;" horiz-adv-x="569" 
d="M469 1536h287l-326 -1536h-287zM642 1664v0v0zM317 0v0v0zM332 1568v0v0zM367 1932h260l-50 -236h-260zM771 1932h260l-50 -236h-260zM642 1664v0v0z" />
    <glyph glyph-name="Eth" unicode="&#xd0;" horiz-adv-x="1251" 
d="M340 905l134 631h590q136 0 222 -106q63 -73 65 -210q2 -136 -61 -434q-63 -295 -134 -450t-184 -247q-112 -89 -291 -89h-533l144 680h-108l48 225h108zM627 905h208l-48 -225h-208l-96 -455h133q167 0 236 109q69 110 140 442q63 298 49 416q-14 119 -149 119h-179z
" />
    <glyph glyph-name="Ntilde" unicode="&#xd1;" horiz-adv-x="1251" 
d="M465 1536h300l182 -972v0l206 972h287l-326 -1536h-300l-187 948v0l-201 -948h-287zM980 1664v0v0zM627 0v0v0zM332 1568v0v0zM599 1678q28 105 113 179q86 75 177 75q61 0 149 -37q89 -36 116 -36q76 0 117 84h134q-95 -250 -292 -250q-52 0 -147 36q-95 37 -125 37
q-74 0 -116 -88h-126zM980 1664v0v0z" />
    <glyph glyph-name="Ograve" unicode="&#xd2;" horiz-adv-x="1251" 
d="M252 599l65 306q80 379 226 521t414 142q300 0 367 -160q66 -159 -7 -503l-65 -308q-73 -340 -212 -485q-139 -144 -418 -144q-270 0 -358 138q-87 138 -12 493zM636 1016l-105 -498q-68 -318 131 -318q209 0 274 306l104 489q72 341 -132 341t-272 -320zM978 1664v0v0z
M957 1664l-241 304h317l131 -304h-207zM978 1664v0v0z" />
    <glyph glyph-name="Oacute" unicode="&#xd3;" horiz-adv-x="1251" 
d="M252 599l65 306q80 379 226 521t414 142q300 0 367 -160q66 -159 -7 -503l-65 -308q-73 -340 -212 -485q-139 -144 -418 -144q-270 0 -358 138q-87 138 -12 493zM636 1016l-105 -498q-68 -318 131 -318q209 0 274 306l104 489q72 341 -132 341t-272 -320zM978 1664v0v0z
M790 1664l259 304h317l-369 -304h-207zM978 1664v0v0z" />
    <glyph glyph-name="Ocircumflex" unicode="&#xd4;" horiz-adv-x="1251" 
d="M252 599l65 306q80 379 226 521t414 142q300 0 367 -160q66 -159 -7 -503l-65 -308q-73 -340 -212 -485q-139 -144 -418 -144q-270 0 -358 138q-87 138 -12 493zM636 1016l-105 -498q-68 -318 131 -318q209 0 274 306l104 489q72 341 -132 341t-272 -320zM978 1664v0v0z
M618 1664l288 304h256l176 -304h-232l-98 169v0l-158 -169h-232zM978 1664v0v0z" />
    <glyph glyph-name="Otilde" unicode="&#xd5;" horiz-adv-x="1251" 
d="M252 599l65 306q80 379 226 521t414 142q300 0 367 -160q66 -159 -7 -503l-65 -308q-73 -340 -212 -485q-139 -144 -418 -144q-270 0 -358 138q-87 138 -12 493zM636 1016l-105 -498q-68 -318 131 -318q209 0 274 306l104 489q72 341 -132 341t-272 -320zM978 1664v0v0z
M597 1678q28 105 113 179q86 75 177 75q61 0 149 -37q89 -36 116 -36q76 0 117 84h134q-95 -250 -292 -250q-52 0 -147 36q-95 37 -125 37q-74 0 -116 -88h-126zM978 1664v0v0z" />
    <glyph glyph-name="Odieresis" unicode="&#xd6;" horiz-adv-x="1251" 
d="M252 599l65 306q80 379 226 521t414 142q300 0 367 -160q66 -159 -7 -503l-65 -308q-73 -340 -212 -485q-139 -144 -418 -144q-270 0 -358 138q-87 138 -12 493zM636 1016l-105 -498q-68 -318 131 -318q209 0 274 306l104 489q72 341 -132 341t-272 -320zM978 1664v0v0z
M703 1932h260l-50 -236h-260zM1107 1932h260l-50 -236h-260zM978 1664v0v0z" />
    <glyph glyph-name="multiply" unicode="&#xd7;" 
d="M218 55l-125 158l354 292l3 12l-230 292l191 158l236 -297v0l360 297l125 -158l-360 -297v0l233 -299l-191 -158l-234 300v0z" />
    <glyph glyph-name="Oslash" unicode="&#xd8;" horiz-adv-x="1251" 
d="M1291 1444v0l122 145l88 -70l-157 -188v0q35 -134 -27 -427l-66 -308q-72 -340 -211 -484q-140 -144 -420 -144q-247 0 -335 106v0l-126 -148l-86 60l157 191v0q-33 163 23 426l65 305q75 354 210 507q136 153 426 153q134 0 211 -27t126 -97zM1050 1174v0
q19 162 -142 162q-204 0 -272 -321l-97 -460v0v0zM1037 981v0l-521 -631v0q2 -150 147 -150q208 0 273 305l101 476v0z" />
    <glyph glyph-name="Ugrave" unicode="&#xd9;" horiz-adv-x="1251" 
d="M465 1536h287l-224 -1054q-33 -155 1 -219q33 -63 135 -63q110 0 170 59t95 223l224 1054h287l-229 -1078q-54 -253 -186 -372q-132 -118 -402 -118q-269 0 -356 113q-87 114 -31 377zM980 1664v0v0zM790 0v0v0zM332 1568v0v0zM959 1664l-241 304h317l131 -304h-207z
M980 1664v0v0z" />
    <glyph glyph-name="Uacute" unicode="&#xda;" horiz-adv-x="1251" 
d="M465 1536h287l-224 -1054q-33 -155 1 -219q33 -63 135 -63q110 0 170 59t95 223l224 1054h287l-229 -1078q-54 -253 -186 -372q-132 -118 -402 -118q-269 0 -356 113q-87 114 -31 377zM980 1664v0v0zM790 0v0v0zM332 1568v0v0zM792 1664l259 304h317l-369 -304h-207z
M980 1664v0v0z" />
    <glyph glyph-name="Ucircumflex" unicode="&#xdb;" horiz-adv-x="1251" 
d="M465 1536h287l-224 -1054q-33 -155 1 -219q33 -63 135 -63q110 0 170 59t95 223l224 1054h287l-229 -1078q-54 -253 -186 -372q-132 -118 -402 -118q-269 0 -356 113q-87 114 -31 377zM980 1664v0v0zM790 0v0v0zM332 1568v0v0zM620 1664l288 304h256l176 -304h-232
l-98 169v0l-158 -169h-232zM980 1664v0v0z" />
    <glyph glyph-name="Udieresis" unicode="&#xdc;" horiz-adv-x="1251" 
d="M465 1536h287l-224 -1054q-33 -155 1 -219q33 -63 135 -63q110 0 170 59t95 223l224 1054h287l-229 -1078q-54 -253 -186 -372q-132 -118 -402 -118q-269 0 -356 113q-87 114 -31 377zM980 1664v0v0zM790 0v0v0zM332 1568v0v0zM705 1932h260l-50 -236h-260zM1109 1932
h260l-50 -236h-260zM980 1664v0v0z" />
    <glyph glyph-name="Yacute" unicode="&#xdd;" horiz-adv-x="1139" 
d="M342 1536h314l109 -588v0l350 588h314l-587 -882l-139 -654h-287l139 654zM913 1664v0v0zM332 1568v0v0zM725 1664l259 304h317l-369 -304h-207zM913 1664v0v0z" />
    <glyph glyph-name="Thorn" unicode="&#xde;" horiz-adv-x="1139" 
d="M701 1296h287q165 0 244 -105q80 -104 33 -329q-98 -462 -557 -462h-197l-85 -400h-287l326 1536h287zM653 1071l-94 -446h145q105 0 170 51q66 52 96 191q24 113 -11 158q-34 46 -161 46h-145z" />
    <glyph glyph-name="germandbls" unicode="&#xdf;" 
d="M125 0l235 1110q54 251 174 355q120 105 311 105q186 0 257 -107q72 -107 36 -280q-53 -247 -227 -296q92 -28 121 -125q28 -97 -19 -319q-100 -473 -387 -473q-83 0 -138 35l40 187q16 -12 52 -12q111 0 153 195l45 215q23 109 -5 144t-106 40l41 195q70 6 101 27
q32 22 52 117l25 117q29 136 -84 136q-121 0 -164 -203l-247 -1163h-266z" />
    <glyph glyph-name="agrave" unicode="&#xe0;" 
d="M268 814q43 205 159 286q118 82 324 82q202 0 274 -76q74 -76 37 -252l-148 -697q-18 -86 -12 -157h-254q-8 38 3 91q3 15 13 39q-77 -87 -146 -124q-67 -36 -132 -36q-305 0 -233 343q33 156 127 236q95 80 296 156q111 39 163 71q52 33 65 95q12 59 -8 83
q-19 24 -90 24q-89 0 -127 -34q-37 -34 -57 -130h-254zM743 606l-178 -103q-74 -41 -101 -76q-28 -34 -43 -105q-31 -148 96 -148q135 0 173 179zM756 1278v0v0zM721 0v0v0zM735 1278l-241 304h317l131 -304h-207zM756 1278v0v0z" />
    <glyph glyph-name="aacute" unicode="&#xe1;" 
d="M268 814q43 205 159 286q118 82 324 82q202 0 274 -76q74 -76 37 -252l-148 -697q-18 -86 -12 -157h-254q-8 38 3 91q3 15 13 39q-77 -87 -146 -124q-67 -36 -132 -36q-305 0 -233 343q33 156 127 236q95 80 296 156q111 39 163 71q52 33 65 95q12 59 -8 83
q-19 24 -90 24q-89 0 -127 -34q-37 -34 -57 -130h-254zM743 606l-178 -103q-74 -41 -101 -76q-28 -34 -43 -105q-31 -148 96 -148q135 0 173 179zM756 1278v0v0zM721 0v0v0zM568 1278l259 304h317l-369 -304h-207zM756 1278v0v0z" />
    <glyph glyph-name="acircumflex" unicode="&#xe2;" 
d="M268 814q43 205 159 286q118 82 324 82q202 0 274 -76q74 -76 37 -252l-148 -697q-18 -86 -12 -157h-254q-8 38 3 91q3 15 13 39q-77 -87 -146 -124q-67 -36 -132 -36q-305 0 -233 343q33 156 127 236q95 80 296 156q111 39 163 71q52 33 65 95q12 59 -8 83
q-19 24 -90 24q-89 0 -127 -34q-37 -34 -57 -130h-254zM743 606l-178 -103q-74 -41 -101 -76q-28 -34 -43 -105q-31 -148 96 -148q135 0 173 179zM756 1278v0v0zM721 0v0v0zM396 1278l288 304h256l176 -304h-232l-98 169v0l-158 -169h-232zM756 1278v0v0z" />
    <glyph glyph-name="atilde" unicode="&#xe3;" 
d="M268 814q43 205 159 286q118 82 324 82q202 0 274 -76q74 -76 37 -252l-148 -697q-18 -86 -12 -157h-254q-8 38 3 91q3 15 13 39q-77 -87 -146 -124q-67 -36 -132 -36q-305 0 -233 343q33 156 127 236q95 80 296 156q111 39 163 71q52 33 65 95q12 59 -8 83
q-19 24 -90 24q-89 0 -127 -34q-37 -34 -57 -130h-254zM743 606l-178 -103q-74 -41 -101 -76q-28 -34 -43 -105q-31 -148 96 -148q135 0 173 179zM756 1278v0v0zM721 0v0v0zM375 1292q28 105 113 179q86 75 177 75q61 0 149 -37q89 -36 116 -36q76 0 117 84h134
q-95 -250 -292 -250q-52 0 -147 36q-95 37 -125 37q-74 0 -116 -88h-126zM756 1278v0v0z" />
    <glyph glyph-name="adieresis" unicode="&#xe4;" 
d="M268 814q43 205 159 286q118 82 324 82q202 0 274 -76q74 -76 37 -252l-148 -697q-18 -86 -12 -157h-254q-8 38 3 91q3 15 13 39q-77 -87 -146 -124q-67 -36 -132 -36q-305 0 -233 343q33 156 127 236q95 80 296 156q111 39 163 71q52 33 65 95q12 59 -8 83
q-19 24 -90 24q-89 0 -127 -34q-37 -34 -57 -130h-254zM743 606l-178 -103q-74 -41 -101 -76q-28 -34 -43 -105q-31 -148 96 -148q135 0 173 179zM756 1278v0v0zM721 0v0v0zM481 1546h260l-50 -236h-260zM885 1546h260l-50 -236h-260zM756 1278v0v0z" />
    <glyph glyph-name="aring" unicode="&#xe5;" 
d="M268 814q43 205 159 286q118 82 324 82q202 0 274 -76q74 -76 37 -252l-148 -697q-18 -86 -12 -157h-254q-8 38 3 91q3 15 13 39q-77 -87 -146 -124q-67 -36 -132 -36q-305 0 -233 343q33 156 127 236q95 80 296 156q111 39 163 71q52 33 65 95q12 59 -8 83
q-19 24 -90 24q-89 0 -127 -34q-37 -34 -57 -130h-254zM743 606l-178 -103q-74 -41 -101 -76q-28 -34 -43 -105q-31 -148 96 -148q135 0 173 179zM756 1278v0v0zM721 0v0v0zM585 1494q19 92 97 155q80 64 171 64q88 0 138 -66q50 -65 32 -153q-20 -90 -96 -153t-166 -63
q-91 0 -144 64q-51 64 -32 152zM687 1496q-11 -50 17 -85q28 -34 77 -34q46 0 87 35q43 36 53 84q10 45 -18 81q-26 37 -72 37q-51 0 -93 -36q-41 -35 -51 -82zM756 1278v0v0z" />
    <glyph glyph-name="ae" unicode="&#xe6;" horiz-adv-x="1479" 
d="M999 1102q105 80 260 80q366 0 289 -361l-62 -293v0h-496v0l-38 -177q-37 -177 84 -177q109 0 133 116l21 96h266q-49 -230 -164 -323q-113 -93 -305 -93q-180 0 -248 128q-107 -128 -298 -128q-179 0 -251 78q-71 79 -35 248q35 166 119 245q85 80 308 168
q113 44 161 74q50 31 63 94q21 101 -102 101q-77 0 -113 -34q-36 -33 -56 -130h-266q39 185 142 276q105 92 338 92q144 0 250 -80zM427 324q-32 -150 78 -150q144 0 186 200l49 232l-147 -80q-140 -76 -166 -202zM1033 732h230v0l23 108q29 138 -80 138q-121 0 -151 -142z
" />
    <glyph glyph-name="ccedilla" unicode="&#xe7;" horiz-adv-x="909" 
d="M659 450h266l-22 -107q-79 -373 -444 -373t-276 421l81 383q87 408 446 408q185 0 258 -92q74 -91 41 -244l-20 -96v0h-266v0l27 125q21 103 -75 103q-102 0 -141 -186l-9 -40l-84 -396q-38 -182 68 -182q92 0 130 182zM750 1278v0v0zM468 0v0v0zM130 -404l60 88
q85 -37 170 -37q38 0 73 22q34 22 42 58q15 69 -87 69q-37 0 -77 -15l-37 41l160 178h106l-117 -127q36 15 81 15q87 0 126 -45t24 -117q-19 -88 -111 -137q-93 -49 -196 -49q-122 0 -217 56zM468 0v0v0z" />
    <glyph glyph-name="egrave" unicode="&#xe8;" 
d="M485 522v0l-36 -166q-19 -94 3 -138q24 -44 96 -44q125 0 158 158l12 54h266q-88 -416 -457 -416q-221 0 -300 109t-26 360l66 313q92 430 483 430q199 0 282 -89t18 -394l-37 -177v0h-528zM528 726h262v0l23 109q17 80 -8 111q-25 32 -99 32q-75 0 -109 -42
q-33 -42 -54 -140zM785 1278v0v0zM610 0v0v0zM764 1278l-241 304h317l131 -304h-207zM785 1278v0v0z" />
    <glyph glyph-name="eacute" unicode="&#xe9;" 
d="M485 522v0l-36 -166q-19 -94 3 -138q24 -44 96 -44q125 0 158 158l12 54h266q-88 -416 -457 -416q-221 0 -300 109t-26 360l66 313q92 430 483 430q199 0 282 -89t18 -394l-37 -177v0h-528zM528 726h262v0l23 109q17 80 -8 111q-25 32 -99 32q-75 0 -109 -42
q-33 -42 -54 -140zM785 1278v0v0zM610 0v0v0zM597 1278l259 304h317l-369 -304h-207zM785 1278v0v0z" />
    <glyph glyph-name="ecircumflex" unicode="&#xea;" 
d="M485 522v0l-36 -166q-19 -94 3 -138q24 -44 96 -44q125 0 158 158l12 54h266q-88 -416 -457 -416q-221 0 -300 109t-26 360l66 313q92 430 483 430q199 0 282 -89t18 -394l-37 -177v0h-528zM528 726h262v0l23 109q17 80 -8 111q-25 32 -99 32q-75 0 -109 -42
q-33 -42 -54 -140zM785 1278v0v0zM610 0v0v0zM425 1278l288 304h256l176 -304h-232l-98 169v0l-158 -169h-232zM785 1278v0v0z" />
    <glyph glyph-name="edieresis" unicode="&#xeb;" 
d="M485 522v0l-36 -166q-19 -94 3 -138q24 -44 96 -44q125 0 158 158l12 54h266q-88 -416 -457 -416q-221 0 -300 109t-26 360l66 313q92 430 483 430q199 0 282 -89t18 -394l-37 -177v0h-528zM528 726h262v0l23 109q17 80 -8 111q-25 32 -99 32q-75 0 -109 -42
q-33 -42 -54 -140zM785 1278v0v0zM610 0v0v0zM510 1546h260l-50 -236h-260zM914 1546h260l-50 -236h-260zM785 1278v0v0z" />
    <glyph glyph-name="igrave" unicode="&#xec;" horiz-adv-x="569" 
d="M394 1152h266l-244 -1152h-266zM554 1278v0v0zM251 1182v0v0zM533 1278l-241 304h317l131 -304h-207zM554 1278v0v0z" />
    <glyph glyph-name="iacute" unicode="&#xed;" horiz-adv-x="569" 
d="M394 1152h266l-244 -1152h-266zM554 1278v0v0zM251 1182v0v0zM366 1278l259 304h317l-369 -304h-207zM554 1278v0v0z" />
    <glyph glyph-name="icircumflex" unicode="&#xee;" horiz-adv-x="569" 
d="M394 1152h266l-244 -1152h-266zM554 1278v0v0zM251 1182v0v0zM194 1278l288 304h256l176 -304h-232l-98 169v0l-158 -169h-232zM554 1278v0v0z" />
    <glyph glyph-name="idieresis" unicode="&#xef;" horiz-adv-x="569" 
d="M394 1152h266l-244 -1152h-266zM554 1278v0v0zM251 1182v0v0zM279 1546h260l-50 -236h-260zM683 1546h260l-50 -236h-260zM554 1278v0v0z" />
    <glyph glyph-name="eth" unicode="&#xf0;" 
d="M627 1365v0q-4 4 -116 83l211 152q65 -25 130 -83v0l122 83l77 -73l-119 -80v0q248 -211 146 -692l-49 -230q-68 -322 -178 -439q-109 -116 -341 -116q-238 0 -300 112q-61 113 4 418q72 338 167 474q96 136 292 136q139 0 178 -61q-15 151 -133 251v0l-141 -94l-77 73z
M529 731l-77 -362q-24 -113 -1 -154q22 -41 103 -41q84 0 117 40q35 41 59 154l77 365q22 100 1 146q-20 46 -97 46q-79 0 -120 -46q-40 -45 -62 -148z" />
    <glyph glyph-name="ntilde" unicode="&#xf1;" 
d="M125 0l244 1152h266l-27 -130q111 160 280 160q119 0 176 -74q58 -73 28 -217l-189 -891h-266l168 791q21 101 5 144q-15 43 -80 43q-132 0 -175 -206l-164 -772h-266zM818 1278v0v0zM514 0v0v0zM437 1292q28 105 113 179q86 75 177 75q61 0 149 -37q89 -36 116 -36
q76 0 117 84h134q-95 -250 -292 -250q-52 0 -147 36q-95 37 -125 37q-74 0 -116 -88h-126zM818 1278v0v0z" />
    <glyph glyph-name="ograve" unicode="&#xf2;" 
d="M214 500l28 133q73 343 196 446t329 103q215 0 285 -108q71 -108 6 -412l-29 -138q-70 -332 -180 -443q-109 -111 -339 -111q-238 0 -300 112q-61 113 4 418zM542 793l-90 -424q-25 -121 -2 -158t104 -37q84 0 118 41t58 154l90 425q39 184 -93 184q-77 0 -121 -43
q-43 -43 -64 -142zM784 1278v0v0zM763 1278l-241 304h317l131 -304h-207zM784 1278v0v0z" />
    <glyph glyph-name="oacute" unicode="&#xf3;" 
d="M214 500l28 133q73 343 196 446t329 103q215 0 285 -108q71 -108 6 -412l-29 -138q-70 -332 -180 -443q-109 -111 -339 -111q-238 0 -300 112q-61 113 4 418zM542 793l-90 -424q-25 -121 -2 -158t104 -37q84 0 118 41t58 154l90 425q39 184 -93 184q-77 0 -121 -43
q-43 -43 -64 -142zM784 1278v0v0zM596 1278l259 304h317l-369 -304h-207zM784 1278v0v0z" />
    <glyph glyph-name="ocircumflex" unicode="&#xf4;" 
d="M214 500l28 133q73 343 196 446t329 103q215 0 285 -108q71 -108 6 -412l-29 -138q-70 -332 -180 -443q-109 -111 -339 -111q-238 0 -300 112q-61 113 4 418zM542 793l-90 -424q-25 -121 -2 -158t104 -37q84 0 118 41t58 154l90 425q39 184 -93 184q-77 0 -121 -43
q-43 -43 -64 -142zM784 1278v0v0zM424 1278l288 304h256l176 -304h-232l-98 169v0l-158 -169h-232zM784 1278v0v0z" />
    <glyph glyph-name="otilde" unicode="&#xf5;" 
d="M214 500l28 133q73 343 196 446t329 103q215 0 285 -108q71 -108 6 -412l-29 -138q-70 -332 -180 -443q-109 -111 -339 -111q-238 0 -300 112q-61 113 4 418zM542 793l-90 -424q-25 -121 -2 -158t104 -37q84 0 118 41t58 154l90 425q39 184 -93 184q-77 0 -121 -43
q-43 -43 -64 -142zM784 1278v0v0zM403 1292q28 105 113 179q86 75 177 75q61 0 149 -37q89 -36 116 -36q76 0 117 84h134q-95 -250 -292 -250q-52 0 -147 36q-95 37 -125 37q-74 0 -116 -88h-126zM784 1278v0v0z" />
    <glyph glyph-name="odieresis" unicode="&#xf6;" 
d="M214 500l28 133q73 343 196 446t329 103q215 0 285 -108q71 -108 6 -412l-29 -138q-70 -332 -180 -443q-109 -111 -339 -111q-238 0 -300 112q-61 113 4 418zM542 793l-90 -424q-25 -121 -2 -158t104 -37q84 0 118 41t58 154l90 425q39 184 -93 184q-77 0 -121 -43
q-43 -43 -64 -142zM784 1278v0v0zM509 1546h260l-50 -236h-260zM913 1546h260l-50 -236h-260zM784 1278v0v0z" />
    <glyph glyph-name="divide" unicode="&#xf7;" 
d="M550 760l51 240h260l-51 -240h-260zM1068 391h-932l48 225h932zM390 7l51 240h260l-51 -240h-260z" />
    <glyph glyph-name="oslash" unicode="&#xf8;" 
d="M187 152v0q-24 108 27 348l23 109q72 341 192 457t336 116q198 0 270 -80v0l143 160l84 -73l-180 -206v0q21 -110 -53 -459q-66 -312 -172 -433q-104 -121 -346 -121q-189 0 -264 72v0l-154 -168l-93 70zM799 695v0l-361 -409v0q-18 -112 116 -112q84 0 117 40
q35 41 59 153zM467 438v0l359 407v0q17 133 -99 133q-77 0 -121 -44q-43 -43 -65 -144z" />
    <glyph glyph-name="ugrave" unicode="&#xf9;" 
d="M365 1152h266l-173 -818q-34 -160 73 -160q123 0 167 206l163 772h266l-244 -1152h-254l38 178q-109 -208 -296 -208q-139 0 -183 72q-43 73 -10 228zM785 1278v0v0zM755 0v0v0zM251 1182v0v0zM764 1278l-241 304h317l131 -304h-207zM785 1278v0v0z" />
    <glyph glyph-name="uacute" unicode="&#xfa;" 
d="M365 1152h266l-173 -818q-34 -160 73 -160q123 0 167 206l163 772h266l-244 -1152h-254l38 178q-109 -208 -296 -208q-139 0 -183 72q-43 73 -10 228zM785 1278v0v0zM755 0v0v0zM251 1182v0v0zM597 1278l259 304h317l-369 -304h-207zM785 1278v0v0z" />
    <glyph glyph-name="ucircumflex" unicode="&#xfb;" 
d="M365 1152h266l-173 -818q-34 -160 73 -160q123 0 167 206l163 772h266l-244 -1152h-254l38 178q-109 -208 -296 -208q-139 0 -183 72q-43 73 -10 228zM785 1278v0v0zM755 0v0v0zM251 1182v0v0zM425 1278l288 304h256l176 -304h-232l-98 169v0l-158 -169h-232zM785 1278v0
v0z" />
    <glyph glyph-name="udieresis" unicode="&#xfc;" 
d="M365 1152h266l-173 -818q-34 -160 73 -160q123 0 167 206l163 772h266l-244 -1152h-254l38 178q-109 -208 -296 -208q-139 0 -183 72q-43 73 -10 228zM785 1278v0v0zM755 0v0v0zM251 1182v0v0zM510 1546h260l-50 -236h-260zM914 1546h260l-50 -236h-260zM785 1278v0v0z
" />
    <glyph glyph-name="yacute" unicode="&#xfd;" horiz-adv-x="909" 
d="M78 -387l44 207q23 -3 52 -3q61 0 87 13q26 14 33 46v0v0q9 44 6 109l-40 1167h279l-16 -828v0l331 828h270l-577 -1288q-64 -140 -139 -200q-76 -60 -209 -60q-41 0 -121 9zM739 1278v0v0zM251 1182v0v0zM551 1278l259 304h317l-369 -304h-207zM739 1278v0v0z" />
    <glyph glyph-name="thorn" unicode="&#xfe;" 
d="M620 1022q103 160 262 160q136 0 191 -88q55 -87 8 -310l-89 -423q-83 -391 -357 -391q-169 0 -208 144l-105 -498h-266l406 1918h266zM562 749l-78 -369q-44 -206 85 -206q117 0 161 207l89 422q20 91 -2 133q-21 42 -75 42q-132 0 -180 -229z" />
    <glyph glyph-name="ydieresis" unicode="&#xff;" horiz-adv-x="909" 
d="M78 -387l44 207q23 -3 52 -3q61 0 87 13q26 14 33 46v0v0q9 44 6 109l-40 1167h279l-16 -828v0l331 828h270l-577 -1288q-64 -140 -139 -200q-76 -60 -209 -60q-41 0 -121 9zM739 1278v0v0zM251 1182v0v0zM464 1546h260l-50 -236h-260zM868 1546h260l-50 -236h-260z
M739 1278v0v0z" />
    <glyph glyph-name="Amacron" unicode="&#x100;" horiz-adv-x="1139" 
d="M18 0l694 1536h385l26 -1536h-309l7 392v0h-334v0l-160 -392h-309zM580 617v0h245v0l18 631v0zM932 1664v0v0zM972 0v0v0zM332 1568v0v0zM629 1895h704l-32 -151h-704zM932 1664v0v0z" />
    <glyph glyph-name="amacron" unicode="&#x101;" 
d="M268 814q43 205 159 286q118 82 324 82q202 0 274 -76q74 -76 37 -252l-148 -697q-18 -86 -12 -157h-254q-8 38 3 91q3 15 13 39q-77 -87 -146 -124q-67 -36 -132 -36q-305 0 -233 343q33 156 127 236q95 80 296 156q111 39 163 71q52 33 65 95q12 59 -8 83
q-19 24 -90 24q-89 0 -127 -34q-37 -34 -57 -130h-254zM743 606l-178 -103q-74 -41 -101 -76q-28 -34 -43 -105q-31 -148 96 -148q135 0 173 179zM756 1278v0v0zM721 0v0v0zM453 1509h704l-32 -151h-704zM756 1278v0v0z" />
    <glyph glyph-name="Abreve" unicode="&#x102;" horiz-adv-x="1139" 
d="M18 0l694 1536h385l26 -1536h-309l7 392v0h-334v0l-160 -392h-309zM580 617v0h245v0l18 631v0zM932 1664v0v0zM972 0v0v0zM332 1568v0v0zM1212 1979h134q-47 -137 -154 -218t-252 -81q-163 0 -241 79q-77 79 -47 220h134q-11 -144 172 -144q196 0 254 144zM932 1664v0v0z
" />
    <glyph glyph-name="abreve" unicode="&#x103;" 
d="M268 814q43 205 159 286q118 82 324 82q202 0 274 -76q74 -76 37 -252l-148 -697q-18 -86 -12 -157h-254q-8 38 3 91q3 15 13 39q-77 -87 -146 -124q-67 -36 -132 -36q-305 0 -233 343q33 156 127 236q95 80 296 156q111 39 163 71q52 33 65 95q12 59 -8 83
q-19 24 -90 24q-89 0 -127 -34q-37 -34 -57 -130h-254zM743 606l-178 -103q-74 -41 -101 -76q-28 -34 -43 -105q-31 -148 96 -148q135 0 173 179zM756 1278v0v0zM721 0v0v0zM1036 1593h134q-47 -137 -154 -218t-252 -81q-163 0 -241 79q-77 79 -47 220h134
q-11 -144 172 -144q196 0 254 144zM756 1278v0v0z" />
    <glyph glyph-name="Aogonek" unicode="&#x104;" horiz-adv-x="1139" 
d="M18 0l694 1536h385l26 -1536h-309l7 392v0h-334v0l-160 -392h-309zM580 617v0h245v0l18 631v0zM932 1664v0v0zM972 0v0v0zM332 1568v0v0zM1038 -385q-67 -31 -154 -31q-111 0 -164 55q-52 55 -32 147q18 86 143 165l76 49h146v0q-157 -77 -175 -160q-8 -39 15 -63
q24 -24 63 -24q46 0 120 39zM972 0v0v0z" />
    <glyph glyph-name="aogonek" unicode="&#x105;" 
d="M268 814q43 205 159 286q118 82 324 82q202 0 274 -76q74 -76 37 -252l-148 -697q-18 -86 -12 -157h-254q-8 38 3 91q3 15 13 39q-77 -87 -146 -124q-67 -36 -132 -36q-305 0 -233 343q33 156 127 236q95 80 296 156q111 39 163 71q52 33 65 95q12 59 -8 83
q-19 24 -90 24q-89 0 -127 -34q-37 -34 -57 -130h-254zM743 606l-178 -103q-74 -41 -101 -76q-28 -34 -43 -105q-31 -148 96 -148q135 0 173 179zM756 1278v0v0zM721 0v0v0zM787 -385q-67 -31 -154 -31q-111 0 -164 55q-52 55 -32 147q18 86 143 165l76 49h146v0
q-157 -77 -175 -160q-8 -39 15 -63q24 -24 63 -24q46 0 120 39zM721 0v0v0z" />
    <glyph glyph-name="Cacute" unicode="&#x106;" horiz-adv-x="1139" 
d="M876 544h287q-56 -268 -187 -422t-370 -154q-282 0 -361 146q-78 147 -6 485l69 325q77 363 221 503q144 141 393 141q234 0 312 -125q77 -125 22 -387h-282q30 142 16 211q-15 69 -96 69q-203 0 -271 -320l-105 -498q-37 -172 0 -245t137 -73q76 0 129 77q52 78 92 267z
M948 1664v0v0zM620 0v0v0zM760 1664l259 304h317l-369 -304h-207zM948 1664v0v0z" />
    <glyph glyph-name="cacute" unicode="&#x107;" horiz-adv-x="909" 
d="M659 450h266l-22 -107q-79 -373 -444 -373t-276 421l81 383q87 408 446 408q185 0 258 -92q74 -91 41 -244l-20 -96v0h-266v0l27 125q21 103 -75 103q-102 0 -141 -186l-9 -40l-84 -396q-38 -182 68 -182q92 0 130 182zM750 1278v0v0zM468 0v0v0zM562 1278l259 304h317
l-369 -304h-207zM750 1278v0v0z" />
    <glyph glyph-name="Ccaron" unicode="&#x10c;" horiz-adv-x="1139" 
d="M876 544h287q-56 -268 -187 -422t-370 -154q-282 0 -361 146q-78 147 -6 485l69 325q77 363 221 503q144 141 393 141q234 0 312 -125q77 -125 22 -387h-282q30 142 16 211q-15 69 -96 69q-203 0 -271 -320l-105 -498q-37 -172 0 -245t137 -73q76 0 129 77q52 78 92 267z
M948 1664v0v0zM620 0v0v0zM1383 1968l-304 -304h-256l-176 304h232l102 -169v0l170 169h232zM948 1664v0v0z" />
    <glyph glyph-name="ccaron" unicode="&#x10d;" horiz-adv-x="909" 
d="M659 450h266l-22 -107q-79 -373 -444 -373t-276 421l81 383q87 408 446 408q185 0 258 -92q74 -91 41 -244l-20 -96v0h-266v0l27 125q21 103 -75 103q-102 0 -141 -186l-9 -40l-84 -396q-38 -182 68 -182q92 0 130 182zM750 1278v0v0zM468 0v0v0zM1185 1582l-304 -304
h-256l-176 304h232l102 -169v0l170 169h232zM750 1278v0v0z" />
    <glyph glyph-name="Dcaron" unicode="&#x10e;" horiz-adv-x="1251" 
d="M148 0l326 1536h590q136 0 222 -106q63 -73 65 -210q2 -136 -61 -434q-63 -295 -134 -450t-184 -247q-112 -89 -291 -89h-533zM483 225h133q161 0 233 108q72 109 143 443q67 317 46 426t-146 109h-179zM897 1664v0v0zM332 1568v0v0zM1332 1968l-304 -304h-256l-176 304
h232l102 -169v0l170 169h232zM897 1664v0v0z" />
    <glyph glyph-name="dcaron" unicode="&#x10f;" horiz-adv-x="1219" 
d="M840 1038l106 498h266l-326 -1536h-266l28 130q-104 -160 -262 -160q-137 0 -193 87q-54 87 -7 311l84 394q49 235 141 327q93 93 222 93q176 0 207 -144zM537 771l-88 -416q-38 -181 76 -181q132 0 180 229l78 368q44 207 -85 207q-117 0 -150 -155zM1461 1302h-130
l51 240h240l-48 -227q-51 -238 -297 -269v0l17 81v0q55 4 101 45q47 42 61 104z" />
    <glyph glyph-name="Dcroat" unicode="&#x110;" horiz-adv-x="1251" 
d="M340 905l134 631h590q136 0 222 -106q63 -73 65 -210q2 -136 -61 -434q-63 -295 -134 -450t-184 -247q-112 -89 -291 -89h-533l144 680h-108l48 225h108zM627 905h208l-48 -225h-208l-96 -455h133q167 0 236 109q69 110 140 442q63 298 49 416q-14 119 -149 119h-179z
" />
    <glyph glyph-name="dcroat" unicode="&#x111;" 
d="M894 1294h-237l25 115h237l27 127h266l-27 -127h100l-25 -115h-100l-274 -1294h-266l28 130q-104 -160 -262 -160q-137 0 -193 87q-54 87 -7 311l89 422q84 392 358 392q172 0 207 -144zM537 771l-89 -423q-18 -84 5 -129q25 -45 72 -45q132 0 180 229l78 368
q44 207 -85 207q-117 0 -151 -163z" />
    <glyph glyph-name="Emacron" unicode="&#x112;" 
d="M130 0l326 1536h815l-48 -225h-528l-83 -390h488l-47 -225h-488l-100 -471h528l-48 -225h-815zM897 1664v0v0zM802 0v0v0zM332 1568v0v0zM594 1895h704l-32 -151h-704zM897 1664v0v0z" />
    <glyph glyph-name="emacron" unicode="&#x113;" 
d="M485 522v0l-36 -166q-19 -94 3 -138q24 -44 96 -44q125 0 158 158l12 54h266q-88 -416 -457 -416q-221 0 -300 109t-26 360l66 313q92 430 483 430q199 0 282 -89t18 -394l-37 -177v0h-528zM528 726h262v0l23 109q17 80 -8 111q-25 32 -99 32q-75 0 -109 -42
q-33 -42 -54 -140zM785 1278v0v0zM610 0v0v0zM482 1509h704l-32 -151h-704zM785 1278v0v0z" />
    <glyph glyph-name="Edotaccent" unicode="&#x116;" 
d="M130 0l326 1536h815l-48 -225h-528l-83 -390h488l-47 -225h-488l-100 -471h528l-48 -225h-815zM897 1664v0v0zM802 0v0v0zM332 1568v0v0zM825 1932h260l-50 -236h-260zM897 1664v0v0z" />
    <glyph glyph-name="edotaccent" unicode="&#x117;" 
d="M485 522v0l-36 -166q-19 -94 3 -138q24 -44 96 -44q125 0 158 158l12 54h266q-88 -416 -457 -416q-221 0 -300 109t-26 360l66 313q92 430 483 430q199 0 282 -89t18 -394l-37 -177v0h-528zM528 726h262v0l23 109q17 80 -8 111q-25 32 -99 32q-75 0 -109 -42
q-33 -42 -54 -140zM785 1278v0v0zM610 0v0v0zM713 1546h260l-50 -236h-260zM785 1278v0v0z" />
    <glyph glyph-name="Eogonek" unicode="&#x118;" 
d="M130 0l326 1536h815l-48 -225h-528l-83 -390h488l-47 -225h-488l-100 -471h528l-48 -225h-815zM897 1664v0v0zM802 0v0v0zM332 1568v0v0zM868 -385q-67 -31 -154 -31q-111 0 -164 55q-52 55 -32 147q18 86 143 165l76 49h146v0q-157 -77 -175 -160q-8 -39 15 -63
q24 -24 63 -24q46 0 120 39zM802 0v0v0z" />
    <glyph glyph-name="eogonek" unicode="&#x119;" 
d="M485 522v0l-36 -166q-19 -94 3 -138q24 -44 96 -44q125 0 158 158l12 54h266q-88 -416 -457 -416q-221 0 -300 109t-26 360l66 313q92 430 483 430q199 0 282 -89t18 -394l-37 -177v0h-528zM528 726h262v0l23 109q17 80 -8 111q-25 32 -99 32q-75 0 -109 -42
q-33 -42 -54 -140zM785 1278v0v0zM610 0v0v0zM676 -385q-67 -31 -154 -31q-111 0 -164 55q-52 55 -32 147q18 86 143 165l76 49h146v0q-157 -77 -175 -160q-8 -39 15 -63q24 -24 63 -24q46 0 120 39zM610 0v0v0z" />
    <glyph glyph-name="Ecaron" unicode="&#x11a;" 
d="M130 0l326 1536h815l-48 -225h-528l-83 -390h488l-47 -225h-488l-100 -471h528l-48 -225h-815zM897 1664v0v0zM802 0v0v0zM332 1568v0v0zM1332 1968l-304 -304h-256l-176 304h232l102 -169v0l170 169h232zM897 1664v0v0z" />
    <glyph glyph-name="ecaron" unicode="&#x11b;" 
d="M485 522v0l-36 -166q-19 -94 3 -138q24 -44 96 -44q125 0 158 158l12 54h266q-88 -416 -457 -416q-221 0 -300 109t-26 360l66 313q92 430 483 430q199 0 282 -89t18 -394l-37 -177v0h-528zM528 726h262v0l23 109q17 80 -8 111q-25 32 -99 32q-75 0 -109 -42
q-33 -42 -54 -140zM785 1278v0v0zM610 0v0v0zM1220 1582l-304 -304h-256l-176 304h232l102 -169v0l170 169h232zM785 1278v0v0z" />
    <glyph glyph-name="Gbreve" unicode="&#x11e;" horiz-adv-x="1251" 
d="M769 599l48 225h470l-175 -824h-215l41 192q-63 -111 -153 -168q-89 -56 -205 -56q-257 0 -336 141q-79 142 -5 490l66 310q81 382 229 520q149 139 416 139q268 0 357 -124t33 -388v0h-287v0q31 145 0 212q-31 68 -153 68q-106 0 -175 -83q-69 -82 -102 -237l-105 -498
q-68 -318 137 -318q122 0 193 102q72 102 113 297h-192zM967 1664v0v0zM610 0v0v0zM1247 1979h134q-47 -137 -154 -218t-252 -81q-163 0 -241 79q-77 79 -47 220h134q-11 -144 172 -144q196 0 254 144zM967 1664v0v0z" />
    <glyph glyph-name="gbreve" unicode="&#x11f;" 
d="M117 -130h266q-8 -65 80 -65h12q125 0 163 181l30 142q-110 -158 -283 -158q-262 0 -178 398l88 416q46 216 132 307q88 91 228 91q168 0 190 -161l28 131h278l-237 -1117q-44 -208 -160 -315q-117 -106 -310 -106q-210 0 -278 65q-68 66 -49 191zM559 774l-85 -401
q-42 -199 69 -199q123 0 171 229l77 361q45 214 -76 214q-113 0 -144 -149zM762 1278v0v0zM1042 1593h134q-47 -137 -154 -218t-252 -81q-163 0 -241 79q-77 79 -47 220h134q-11 -144 172 -144q196 0 254 144zM762 1278v0v0z" />
    <glyph glyph-name="Gcommaaccent" unicode="&#x122;" horiz-adv-x="1251" 
d="M769 599l48 225h470l-175 -824h-215l41 192q-63 -111 -153 -168q-89 -56 -205 -56q-257 0 -336 141q-79 142 -5 490l66 310q81 382 229 520q149 139 416 139q268 0 357 -124t33 -388v0h-287v0q31 145 0 212q-31 68 -153 68q-106 0 -175 -83q-69 -82 -102 -237l-105 -498
q-68 -318 137 -318q122 0 193 102q72 102 113 297h-192zM967 1664v0v0zM610 0v0v0zM418 -336l51 240h240l-48 -227q-51 -238 -298 -269v0l18 81v0q55 4 101 45q47 42 60 104l6 26h-130zM610 0v0v0z" />
    <glyph glyph-name="gcommaaccent" unicode="&#x123;" 
d="M117 -130h266q-8 -65 80 -65h12q125 0 163 181l30 142q-110 -158 -283 -158q-262 0 -178 398l88 416q46 216 132 307q88 91 228 91q168 0 190 -161l28 131h278l-237 -1117q-44 -208 -160 -315q-117 -106 -310 -106q-210 0 -278 65q-68 66 -49 191zM559 774l-85 -401
q-42 -199 69 -199q123 0 171 229l77 361q45 214 -76 214q-113 0 -144 -149zM762 1278v0v0zM932 1518l-51 -240h-240l48 228q50 237 297 268v0l-17 -81v0q-56 -5 -103 -47q-46 -41 -59 -103l-5 -25h130zM762 1278v0v0z" />
    <glyph glyph-name="Imacron" unicode="&#x12a;" horiz-adv-x="569" 
d="M469 1536h287l-326 -1536h-287zM642 1664v0v0zM317 0v0v0zM332 1568v0v0zM339 1895h704l-32 -151h-704zM642 1664v0v0z" />
    <glyph glyph-name="imacron" unicode="&#x12b;" horiz-adv-x="569" 
d="M394 1152h266l-244 -1152h-266zM554 1278v0v0zM251 1182v0v0zM251 1509h704l-32 -151h-704zM554 1278v0v0z" />
    <glyph glyph-name="Iogonek" unicode="&#x12e;" horiz-adv-x="569" 
d="M469 1536h287l-326 -1536h-287zM642 1664v0v0zM317 0v0v0zM332 1568v0v0zM383 -385q-67 -31 -154 -31q-111 0 -164 55q-52 55 -32 147q18 86 143 165l76 49h146v0q-157 -77 -175 -160q-8 -39 15 -63q24 -24 63 -24q46 0 120 39zM317 0v0v0z" />
    <glyph glyph-name="iogonek" unicode="&#x12f;" horiz-adv-x="569" 
d="M394 1152h266l-244 -1152h-266zM476 1539h266l-51 -243h-266zM330 0v0v0zM396 -385q-67 -31 -154 -31q-111 0 -164 55q-52 55 -32 147q18 86 143 165l76 49h146v0q-157 -77 -175 -160q-8 -39 15 -63q24 -24 63 -24q46 0 120 39zM330 0v0v0z" />
    <glyph glyph-name="Idotaccent" unicode="&#x130;" horiz-adv-x="569" 
d="M469 1536h287l-326 -1536h-287zM642 1664v0v0zM317 0v0v0zM332 1568v0v0zM570 1932h260l-50 -236h-260zM642 1664v0v0z" />
    <glyph glyph-name="dotlessi" unicode="&#x131;" horiz-adv-x="569" 
d="M394 1152h266l-244 -1152h-266zM554 1278v0v0zM251 1182v0v0z" />
    <glyph glyph-name="Kcommaaccent" unicode="&#x136;" horiz-adv-x="1139" 
d="M139 0l326 1536h287l-140 -660v0l489 660h323l-522 -666v0l214 -870h-323l-142 606v0l-132 -168l-93 -438h-287zM628 0v0v0zM436 -336l51 240h240l-48 -227q-51 -238 -298 -269v0l18 81v0q55 4 101 45q47 42 60 104l6 26h-130zM628 0v0v0z" />
    <glyph glyph-name="kcommaaccent" unicode="&#x137;" horiz-adv-x="909" 
d="M100 0l326 1536h266l-179 -843v0l350 459h291l-396 -473v0l144 -679h-295l-70 468v0l-97 -117l-74 -351h-266zM501 0v0v0zM309 -336l51 240h240l-48 -227q-51 -238 -298 -269v0l18 81v0q55 4 101 45q47 42 60 104l6 26h-130zM501 0v0v0z" />
    <glyph glyph-name="Lacute" unicode="&#x139;" 
d="M465 1536h287l-278 -1311h528l-48 -225h-815zM635 1664v0v0zM547 0v0v0zM332 1568v0v0zM447 1664l259 304h317l-369 -304h-207zM635 1664v0v0z" />
    <glyph glyph-name="lacute" unicode="&#x13a;" horiz-adv-x="569" 
d="M150 0l326 1536h266l-326 -1536h-266zM582 1632v0v0zM277 0v0v0zM394 1632l259 304h317l-369 -304h-207zM582 1632v0v0z" />
    <glyph glyph-name="Lcommaaccent" unicode="&#x13b;" 
d="M465 1536h287l-278 -1311h528l-48 -225h-815zM635 1664v0v0zM547 0v0v0zM332 1568v0v0zM355 -336l51 240h240l-48 -227q-51 -238 -298 -269v0l18 81v0q55 4 101 45q47 42 60 104l6 26h-130zM547 0v0v0z" />
    <glyph glyph-name="lcommaaccent" unicode="&#x13c;" horiz-adv-x="569" 
d="M150 0l326 1536h266l-326 -1536h-266zM582 1632v0v0zM277 0v0v0zM85 -336l51 240h240l-48 -227q-51 -238 -298 -269v0l18 81v0q55 4 101 45q47 42 60 104l6 26h-130zM277 0v0v0z" />
    <glyph glyph-name="Lcaron" unicode="&#x13d;" 
d="M465 1536h287l-278 -1311h528l-48 -225h-815zM635 1664v0v0zM547 0v0v0zM332 1568v0v0zM1174 1302h-130l51 240h240l-48 -227q-51 -238 -297 -269v0l17 81v0q55 4 101 45q47 42 61 104z" />
    <glyph glyph-name="lcaron" unicode="&#x13e;" horiz-adv-x="752" 
d="M150 0l326 1536h266l-326 -1536h-266zM582 1632v0v0zM277 0v0v0zM998 1302h-130l51 240h240l-48 -227q-51 -238 -297 -269v0l17 81v0q55 4 101 45q47 42 61 104z" />
    <glyph glyph-name="Lslash" unicode="&#x141;" 
d="M478 1536h287l-98 -462v0l249 182l-55 -260l-249 -182v0l-125 -589h528l-48 -225h-815l126 595v0l-178 -123l55 260l178 121v0z" />
    <glyph glyph-name="lslash" unicode="&#x142;" horiz-adv-x="569" 
d="M150 0l157 740v0l-168 -104l41 195l168 104v0l128 601h266l-103 -486v0l157 98l-42 -198l-158 -99v0l-180 -851h-266z" />
    <glyph glyph-name="Nacute" unicode="&#x143;" horiz-adv-x="1251" 
d="M465 1536h300l182 -972v0l206 972h287l-326 -1536h-300l-187 948v0l-201 -948h-287zM980 1664v0v0zM627 0v0v0zM332 1568v0v0zM792 1664l259 304h317l-369 -304h-207zM980 1664v0v0z" />
    <glyph glyph-name="nacute" unicode="&#x144;" 
d="M125 0l244 1152h266l-27 -130q111 160 280 160q119 0 176 -74q58 -73 28 -217l-189 -891h-266l168 791q21 101 5 144q-15 43 -80 43q-132 0 -175 -206l-164 -772h-266zM818 1278v0v0zM514 0v0v0zM630 1278l259 304h317l-369 -304h-207zM818 1278v0v0z" />
    <glyph glyph-name="Ncommaaccent" unicode="&#x145;" horiz-adv-x="1251" 
d="M465 1536h300l182 -972v0l206 972h287l-326 -1536h-300l-187 948v0l-201 -948h-287zM980 1664v0v0zM627 0v0v0zM332 1568v0v0zM435 -336l51 240h240l-48 -227q-51 -238 -298 -269v0l18 81v0q55 4 101 45q47 42 60 104l6 26h-130zM627 0v0v0z" />
    <glyph glyph-name="ncommaaccent" unicode="&#x146;" 
d="M125 0l244 1152h266l-27 -130q111 160 280 160q119 0 176 -74q58 -73 28 -217l-189 -891h-266l168 791q21 101 5 144q-15 43 -80 43q-132 0 -175 -206l-164 -772h-266zM818 1278v0v0zM514 0v0v0zM322 -336l51 240h240l-48 -227q-51 -238 -298 -269v0l18 81v0q55 4 101 45
q47 42 60 104l6 26h-130zM514 0v0v0z" />
    <glyph glyph-name="Ncaron" unicode="&#x147;" horiz-adv-x="1251" 
d="M465 1536h300l182 -972v0l206 972h287l-326 -1536h-300l-187 948v0l-201 -948h-287zM980 1664v0v0zM627 0v0v0zM332 1568v0v0zM1415 1968l-304 -304h-256l-176 304h232l102 -169v0l170 169h232zM980 1664v0v0z" />
    <glyph glyph-name="ncaron" unicode="&#x148;" 
d="M125 0l244 1152h266l-27 -130q111 160 280 160q119 0 176 -74q58 -73 28 -217l-189 -891h-266l168 791q21 101 5 144q-15 43 -80 43q-132 0 -175 -206l-164 -772h-266zM818 1278v0v0zM514 0v0v0zM1253 1582l-304 -304h-256l-176 304h232l102 -169v0l170 169h232z
M818 1278v0v0z" />
    <glyph glyph-name="Omacron" unicode="&#x14c;" horiz-adv-x="1251" 
d="M252 599l65 306q80 379 226 521t414 142q300 0 367 -160q66 -159 -7 -503l-65 -308q-73 -340 -212 -485q-139 -144 -418 -144q-270 0 -358 138q-87 138 -12 493zM636 1016l-105 -498q-68 -318 131 -318q209 0 274 306l104 489q72 341 -132 341t-272 -320zM978 1664v0v0z
M675 1895h704l-32 -151h-704zM978 1664v0v0z" />
    <glyph glyph-name="omacron" unicode="&#x14d;" 
d="M214 500l28 133q73 343 196 446t329 103q215 0 285 -108q71 -108 6 -412l-29 -138q-70 -332 -180 -443q-109 -111 -339 -111q-238 0 -300 112q-61 113 4 418zM542 793l-90 -424q-25 -121 -2 -158t104 -37q84 0 118 41t58 154l90 425q39 184 -93 184q-77 0 -121 -43
q-43 -43 -64 -142zM784 1278v0v0zM481 1509h704l-32 -151h-704zM784 1278v0v0z" />
    <glyph glyph-name="Ohungarumlaut" unicode="&#x150;" horiz-adv-x="1251" 
d="M252 599l65 306q80 379 226 521t414 142q300 0 367 -160q66 -159 -7 -503l-65 -308q-73 -340 -212 -485q-139 -144 -418 -144q-270 0 -358 138q-87 138 -12 493zM636 1016l-105 -498q-68 -318 131 -318q209 0 274 306l104 489q72 341 -132 341t-272 -320zM978 1664v0v0z
M652 1664l259 304h317l-369 -304h-207zM1100 1664l259 304h317l-369 -304h-207zM978 1664v0v0z" />
    <glyph glyph-name="ohungarumlaut" unicode="&#x151;" 
d="M214 500l28 133q73 343 196 446t329 103q215 0 285 -108q71 -108 6 -412l-29 -138q-70 -332 -180 -443q-109 -111 -339 -111q-238 0 -300 112q-61 113 4 418zM542 793l-90 -424q-25 -121 -2 -158t104 -37q84 0 118 41t58 154l90 425q39 184 -93 184q-77 0 -121 -43
q-43 -43 -64 -142zM784 1278v0v0zM458 1278l259 304h317l-369 -304h-207zM906 1278l259 304h317l-369 -304h-207zM784 1278v0v0z" />
    <glyph glyph-name="OE" unicode="&#x152;" horiz-adv-x="1706" 
d="M1674 225l-48 -225h-781l37 176q-47 -94 -132 -151t-193 -57q-439 0 -289 706l47 220q70 331 220 502q151 172 358 172q109 0 173 -50q63 -49 74 -126l31 144h781l-48 -225h-512l-83 -390h476l-47 -225h-476l-100 -471h512zM930 1336q-235 0 -324 -422l-63 -296
q-46 -215 -16 -317q29 -101 141 -101q106 0 165 54q60 55 90 199l134 631q53 252 -127 252z" />
    <glyph glyph-name="oe" unicode="&#x153;" horiz-adv-x="1479" 
d="M980 1070q63 59 130 85q68 27 180 27q202 0 255 -127q54 -126 15 -310l-46 -217v0h-512v0l-29 -136q-26 -124 -11 -171q16 -47 79 -47q132 0 160 132l17 80h266q-48 -226 -164 -321q-115 -95 -290 -95q-180 0 -258 112q-125 -112 -311 -112q-202 0 -264 112
q-60 113 5 418l24 111q74 352 190 461q117 110 295 110q172 0 269 -112zM525 771l-69 -327q-37 -175 -19 -223q18 -47 97 -47q68 0 109 57q42 57 76 219l73 344q39 184 -96 184q-73 0 -110 -50q-38 -49 -61 -157zM1041 732h250v0l17 79q35 167 -92 167q-123 0 -159 -173z
" />
    <glyph glyph-name="Racute" unicode="&#x154;" horiz-adv-x="1251" 
d="M1158 0h-314q-14 80 49 376q39 185 2 236q-37 52 -229 52h-104l-141 -664h-287l326 1536h548q230 0 307 -99q78 -99 41 -271q-71 -336 -320 -369q110 -17 152 -88t16 -197l-26 -120q-65 -308 -14 -364zM1044 1110q24 113 -7 157t-130 44h-208l-90 -422h208q180 0 227 221
zM975 1664v0v0zM629 0v0v0zM332 1568v0v0zM787 1664l259 304h317l-369 -304h-207zM975 1664v0v0z" />
    <glyph glyph-name="racute" unicode="&#x155;" horiz-adv-x="682" 
d="M125 0l244 1152h258l-43 -204q66 108 146 171q81 63 184 63v0l-67 -313q-29 3 -56 3q-215 0 -256 -194l-144 -678h-266zM694 1278v0v0zM264 0v0v0zM506 1278l259 304h317l-369 -304h-207zM694 1278v0v0z" />
    <glyph glyph-name="Rcommaaccent" unicode="&#x156;" horiz-adv-x="1251" 
d="M1158 0h-314q-14 80 49 376q39 185 2 236q-37 52 -229 52h-104l-141 -664h-287l326 1536h548q230 0 307 -99q78 -99 41 -271q-71 -336 -320 -369q110 -17 152 -88t16 -197l-26 -120q-65 -308 -14 -364zM1044 1110q24 113 -7 157t-130 44h-208l-90 -422h208q180 0 227 221
zM975 1664v0v0zM629 0v0v0zM332 1568v0v0zM437 -336l51 240h240l-48 -227q-51 -238 -298 -269v0l18 81v0q55 4 101 45q47 42 60 104l6 26h-130zM629 0v0v0z" />
    <glyph glyph-name="rcommaaccent" unicode="&#x157;" horiz-adv-x="682" 
d="M125 0l244 1152h258l-43 -204q66 108 146 171q81 63 184 63v0l-67 -313q-29 3 -56 3q-215 0 -256 -194l-144 -678h-266zM694 1278v0v0zM264 0v0v0zM72 -336l51 240h240l-48 -227q-51 -238 -298 -269v0l18 81v0q55 4 101 45q47 42 60 104l6 26h-130zM264 0v0v0z" />
    <glyph glyph-name="Rcaron" unicode="&#x158;" horiz-adv-x="1251" 
d="M1158 0h-314q-14 80 49 376q39 185 2 236q-37 52 -229 52h-104l-141 -664h-287l326 1536h548q230 0 307 -99q78 -99 41 -271q-71 -336 -320 -369q110 -17 152 -88t16 -197l-26 -120q-65 -308 -14 -364zM1044 1110q24 113 -7 157t-130 44h-208l-90 -422h208q180 0 227 221
zM975 1664v0v0zM629 0v0v0zM332 1568v0v0zM1410 1968l-304 -304h-256l-176 304h232l102 -169v0l170 169h232zM975 1664v0v0z" />
    <glyph glyph-name="rcaron" unicode="&#x159;" horiz-adv-x="682" 
d="M125 0l244 1152h258l-43 -204q66 108 146 171q81 63 184 63v0l-67 -313q-29 3 -56 3q-215 0 -256 -194l-144 -678h-266zM694 1278v0v0zM264 0v0v0zM1129 1582l-304 -304h-256l-176 304h232l102 -169v0l170 169h232zM694 1278v0v0z" />
    <glyph glyph-name="Sacute" unicode="&#x15a;" horiz-adv-x="1139" 
d="M227 544h287v0l-19 -89q-54 -255 128 -255q163 0 201 176q20 95 -27 155t-190 164q-148 108 -214 214t-34 254q85 405 537 405q241 0 317 -118q78 -117 22 -378v0h-278v0l11 51q45 213 -121 213q-156 0 -186 -144q-17 -79 19 -125q38 -45 193 -166q168 -127 228 -226
q61 -98 27 -258q-44 -211 -189 -330q-144 -119 -366 -119q-468 0 -371 456l25 120v0zM913 1664v0v0zM581 0v0v0zM725 1664l259 304h317l-369 -304h-207zM913 1664v0v0z" />
    <glyph glyph-name="sacute" unicode="&#x15b;" horiz-adv-x="909" 
d="M146 386h266q-12 -38 -19 -71q-30 -141 83 -141q117 0 139 102q12 61 -22 94q-33 33 -89 78l-127 106q-167 137 -121 352q59 276 446 276q193 0 264 -94t29 -290v0h-266v0q26 122 -1 151q-26 29 -82 29q-109 0 -129 -95q-9 -44 12 -75q22 -30 75 -73l165 -132
q158 -127 121 -301q-70 -332 -447 -332q-389 0 -312 364q7 34 15 52zM708 1278v0v0zM440 0v0v0zM520 1278l259 304h317l-369 -304h-207zM708 1278v0v0z" />
    <glyph glyph-name="Scedilla" unicode="&#x15e;" horiz-adv-x="1139" 
d="M227 544h287v0l-19 -89q-54 -255 128 -255q163 0 201 176q20 95 -27 155t-190 164q-148 108 -214 214t-34 254q85 405 537 405q241 0 317 -118q78 -117 22 -378v0h-278v0l11 51q45 213 -121 213q-156 0 -186 -144q-17 -79 19 -125q38 -45 193 -166q168 -127 228 -226
q61 -98 27 -258q-44 -211 -189 -330q-144 -119 -366 -119q-468 0 -371 456l25 120v0zM913 1664v0v0zM581 0v0v0zM243 -404l60 88q85 -37 170 -37q38 0 73 22q34 22 42 58q15 69 -87 69q-37 0 -77 -15l-37 41l160 178h106l-117 -127q36 15 81 15q87 0 126 -45t24 -117
q-19 -88 -111 -137q-93 -49 -196 -49q-122 0 -217 56zM581 0v0v0z" />
    <glyph glyph-name="scedilla" unicode="&#x15f;" horiz-adv-x="909" 
d="M146 386h266q-12 -38 -19 -71q-30 -141 83 -141q117 0 139 102q12 61 -22 94q-33 33 -89 78l-127 106q-167 137 -121 352q59 276 446 276q193 0 264 -94t29 -290v0h-266v0q26 122 -1 151q-26 29 -82 29q-109 0 -129 -95q-9 -44 12 -75q22 -30 75 -73l165 -132
q158 -127 121 -301q-70 -332 -447 -332q-389 0 -312 364q7 34 15 52zM708 1278v0v0zM440 0v0v0zM102 -404l60 88q85 -37 170 -37q38 0 73 22q34 22 42 58q15 69 -87 69q-37 0 -77 -15l-37 41l160 178h106l-117 -127q36 15 81 15q87 0 126 -45t24 -117q-19 -88 -111 -137
q-93 -49 -196 -49q-122 0 -217 56zM440 0v0v0z" />
    <glyph glyph-name="Scaron" unicode="&#x160;" horiz-adv-x="1139" 
d="M227 544h287v0l-19 -89q-54 -255 128 -255q163 0 201 176q20 95 -27 155t-190 164q-148 108 -214 214t-34 254q85 405 537 405q241 0 317 -118q78 -117 22 -378v0h-278v0l11 51q45 213 -121 213q-156 0 -186 -144q-17 -79 19 -125q38 -45 193 -166q168 -127 228 -226
q61 -98 27 -258q-44 -211 -189 -330q-144 -119 -366 -119q-468 0 -371 456l25 120v0zM913 1664v0v0zM581 0v0v0zM1348 1968l-304 -304h-256l-176 304h232l102 -169v0l170 169h232zM913 1664v0v0z" />
    <glyph glyph-name="scaron" unicode="&#x161;" horiz-adv-x="909" 
d="M146 386h266q-12 -38 -19 -71q-30 -141 83 -141q117 0 139 102q12 61 -22 94q-33 33 -89 78l-127 106q-167 137 -121 352q59 276 446 276q193 0 264 -94t29 -290v0h-266v0q26 122 -1 151q-26 29 -82 29q-109 0 -129 -95q-9 -44 12 -75q22 -30 75 -73l165 -132
q158 -127 121 -301q-70 -332 -447 -332q-389 0 -312 364q7 34 15 52zM708 1278v0v0zM440 0v0v0zM1143 1582l-304 -304h-256l-176 304h232l102 -169v0l170 169h232zM708 1278v0v0z" />
    <glyph glyph-name="Tcommaaccent" unicode="&#x162;" 
d="M358 1536h959l-48 -225h-336l-278 -1311h-287l278 1311h-336zM865 1664v0v0zM512 0v0v0zM332 1568v0v0zM320 -336l51 240h240l-48 -227q-51 -238 -298 -269v0l18 81v0q55 4 101 45q47 42 60 104l6 26h-130zM512 0v0v0z" />
    <glyph glyph-name="tcommaaccent" unicode="&#x163;" horiz-adv-x="569" 
d="M232 957l41 195h108l68 320h266l-68 -320h112l-41 -195h-112l-147 -691q-4 -23 0 -47q5 -24 59 -24q17 0 39 3l-44 -207q-68 -9 -141 -9q-117 0 -168 47t-27 159l163 769h-108zM338 0v0v0zM146 -336l51 240h240l-48 -227q-51 -238 -298 -269v0l18 81v0q55 4 101 45
q47 42 60 104l6 26h-130zM338 0v0v0z" />
    <glyph glyph-name="Tcaron" unicode="&#x164;" 
d="M358 1536h959l-48 -225h-336l-278 -1311h-287l278 1311h-336zM865 1664v0v0zM512 0v0v0zM332 1568v0v0zM1300 1968l-304 -304h-256l-176 304h232l102 -169v0l170 169h232zM865 1664v0v0z" />
    <glyph glyph-name="tcaron" unicode="&#x165;" horiz-adv-x="692" 
d="M232 957l41 195h108l68 320h266l-68 -320h112l-41 -195h-112l-147 -691q-4 -23 0 -47q5 -24 59 -24q17 0 39 3l-44 -207q-68 -9 -141 -9q-117 0 -168 47t-27 159l163 769h-108zM338 0v0v0zM977 1540h-130l51 240h240l-48 -227q-51 -238 -297 -269v0l17 81v0q55 4 101 45
q47 42 61 104z" />
    <glyph glyph-name="Umacron" unicode="&#x16a;" horiz-adv-x="1251" 
d="M465 1536h287l-224 -1054q-33 -155 1 -219q33 -63 135 -63q110 0 170 59t95 223l224 1054h287l-229 -1078q-54 -253 -186 -372q-132 -118 -402 -118q-269 0 -356 113q-87 114 -31 377zM980 1664v0v0zM790 0v0v0zM332 1568v0v0zM677 1895h704l-32 -151h-704zM980 1664v0v0
z" />
    <glyph glyph-name="umacron" unicode="&#x16b;" 
d="M365 1152h266l-173 -818q-34 -160 73 -160q123 0 167 206l163 772h266l-244 -1152h-254l38 178q-109 -208 -296 -208q-139 0 -183 72q-43 73 -10 228zM785 1278v0v0zM755 0v0v0zM251 1182v0v0zM482 1509h704l-32 -151h-704zM785 1278v0v0z" />
    <glyph glyph-name="Uring" unicode="&#x16e;" horiz-adv-x="1251" 
d="M465 1536h287l-224 -1054q-33 -155 1 -219q33 -63 135 -63q110 0 170 59t95 223l224 1054h287l-229 -1078q-54 -253 -186 -372q-132 -118 -402 -118q-269 0 -356 113q-87 114 -31 377zM980 1664v0v0zM790 0v0v0zM332 1568v0v0zM809 1880q19 92 97 155q80 64 171 64
q88 0 138 -66q50 -65 32 -153q-20 -90 -96 -153t-166 -63q-91 0 -144 64q-51 64 -32 152zM911 1882q-11 -50 17 -85q28 -34 77 -34q46 0 87 35q43 36 53 84q10 45 -18 81q-26 37 -72 37q-51 0 -93 -36q-41 -35 -51 -82zM980 1664v0v0z" />
    <glyph glyph-name="uring" unicode="&#x16f;" 
d="M365 1152h266l-173 -818q-34 -160 73 -160q123 0 167 206l163 772h266l-244 -1152h-254l38 178q-109 -208 -296 -208q-139 0 -183 72q-43 73 -10 228zM785 1278v0v0zM755 0v0v0zM251 1182v0v0zM614 1494q19 92 97 155q80 64 171 64q88 0 138 -66q50 -65 32 -153
q-20 -90 -96 -153t-166 -63q-91 0 -144 64q-51 64 -32 152zM716 1496q-11 -50 17 -85q28 -34 77 -34q46 0 87 35q43 36 53 84q10 45 -18 81q-26 37 -72 37q-51 0 -93 -36q-41 -35 -51 -82zM785 1278v0v0z" />
    <glyph glyph-name="Uhungarumlaut" unicode="&#x170;" horiz-adv-x="1251" 
d="M465 1536h287l-224 -1054q-33 -155 1 -219q33 -63 135 -63q110 0 170 59t95 223l224 1054h287l-229 -1078q-54 -253 -186 -372q-132 -118 -402 -118q-269 0 -356 113q-87 114 -31 377zM980 1664v0v0zM790 0v0v0zM332 1568v0v0zM654 1664l259 304h317l-369 -304h-207z
M1102 1664l259 304h317l-369 -304h-207zM980 1664v0v0z" />
    <glyph glyph-name="uhungarumlaut" unicode="&#x171;" 
d="M365 1152h266l-173 -818q-34 -160 73 -160q123 0 167 206l163 772h266l-244 -1152h-254l38 178q-109 -208 -296 -208q-139 0 -183 72q-43 73 -10 228zM785 1278v0v0zM755 0v0v0zM251 1182v0v0zM459 1278l259 304h317l-369 -304h-207zM907 1278l259 304h317l-369 -304
h-207zM785 1278v0v0z" />
    <glyph glyph-name="Uogonek" unicode="&#x172;" horiz-adv-x="1251" 
d="M465 1536h287l-224 -1054q-33 -155 1 -219q33 -63 135 -63q110 0 170 59t95 223l224 1054h287l-229 -1078q-54 -253 -186 -372q-132 -118 -402 -118q-269 0 -356 113q-87 114 -31 377zM980 1664v0v0zM790 0v0v0zM332 1568v0v0zM856 -385q-67 -31 -154 -31q-111 0 -164 55
q-52 55 -32 147q18 86 143 165l76 49h146v0q-157 -77 -175 -160q-8 -39 15 -63q24 -24 63 -24q46 0 120 39zM790 0v0v0z" />
    <glyph glyph-name="uogonek" unicode="&#x173;" 
d="M365 1152h266l-173 -818q-34 -160 73 -160q123 0 167 206l163 772h266l-244 -1152h-254l38 178q-109 -208 -296 -208q-139 0 -183 72q-43 73 -10 228zM785 1278v0v0zM755 0v0v0zM251 1182v0v0zM821 -385q-67 -31 -154 -31q-111 0 -164 55q-52 55 -32 147q18 86 143 165
l76 49h146v0q-157 -77 -175 -160q-8 -39 15 -63q24 -24 63 -24q46 0 120 39zM755 0v0v0z" />
    <glyph glyph-name="Ydieresis" unicode="&#x178;" horiz-adv-x="1139" 
d="M342 1536h314l109 -588v0l350 588h314l-587 -882l-139 -654h-287l139 654zM913 1664v0v0zM332 1568v0v0zM638 1932h260l-50 -236h-260zM1042 1932h260l-50 -236h-260zM913 1664v0v0z" />
    <glyph glyph-name="Zacute" unicode="&#x179;" 
d="M67 0l48 228l796 1083v0h-535l48 225h849l-49 -228l-800 -1083v0h589l-48 -225h-898zM875 1664v0v0zM332 1568v0v0zM687 1664l259 304h317l-369 -304h-207zM875 1664v0v0z" />
    <glyph glyph-name="zacute" unicode="&#x17a;" horiz-adv-x="797" 
d="M46 0l44 207l561 741v0h-396l43 204h696l-40 -189l-582 -759v0h421l-43 -204h-704zM687 1278v0v0zM251 1182v0v0zM499 1278l259 304h317l-369 -304h-207zM687 1278v0v0z" />
    <glyph glyph-name="Zdotaccent" unicode="&#x17b;" 
d="M67 0l48 228l796 1083v0h-535l48 225h849l-49 -228l-800 -1083v0h589l-48 -225h-898zM875 1664v0v0zM332 1568v0v0zM803 1932h260l-50 -236h-260zM875 1664v0v0z" />
    <glyph glyph-name="zdotaccent" unicode="&#x17c;" horiz-adv-x="797" 
d="M46 0l44 207l561 741v0h-396l43 204h696l-40 -189l-582 -759v0h421l-43 -204h-704zM687 1278v0v0zM251 1182v0v0zM615 1546h260l-50 -236h-260zM687 1278v0v0z" />
    <glyph glyph-name="Zcaron" unicode="&#x17d;" 
d="M67 0l48 228l796 1083v0h-535l48 225h849l-49 -228l-800 -1083v0h589l-48 -225h-898zM875 1664v0v0zM332 1568v0v0zM1310 1968l-304 -304h-256l-176 304h232l102 -169v0l170 169h232zM875 1664v0v0z" />
    <glyph glyph-name="zcaron" unicode="&#x17e;" horiz-adv-x="797" 
d="M46 0l44 207l561 741v0h-396l43 204h696l-40 -189l-582 -759v0h421l-43 -204h-704zM687 1278v0v0zM251 1182v0v0zM1122 1582l-304 -304h-256l-176 304h232l102 -169v0l170 169h232zM687 1278v0v0z" />
    <glyph glyph-name="florin" unicode="&#x192;" 
d="M-59 -359v0l80 221q29 -30 81 -30q87 0 159 185l318 808v0h-227l41 195h256v0l80 190q150 358 437 358q82 0 169 -32l-91 -211q-36 24 -81 24q-125 0 -187 -173l-55 -156v0h224l-41 -195h-251v0l-268 -710q-116 -310 -227 -405q-111 -94 -250 -94q-86 0 -167 25z" />
    <glyph glyph-name="circumflex" unicode="&#x2c6;" horiz-adv-x="682" 
d="M259 1296l288 304h256l176 -304h-232l-98 169v0l-158 -169h-232zM619 1296v0v0z" />
    <glyph glyph-name="caron" unicode="&#x2c7;" horiz-adv-x="682" 
d="M1043 1600l-304 -304h-256l-176 304h232l102 -169v0l170 169h232zM608 1296v0v0z" />
    <glyph glyph-name="breve" unicode="&#x2d8;" horiz-adv-x="682" 
d="M902 1611h134q-47 -137 -154 -218t-252 -81q-163 0 -241 79q-77 79 -47 220h134q-11 -144 172 -144q196 0 254 144zM622 1296v0v0z" />
    <glyph glyph-name="dotaccent" unicode="&#x2d9;" horiz-adv-x="682" 
d="M540 1564h260l-50 -236h-260zM612 1296v0v0z" />
    <glyph glyph-name="ring" unicode="&#x2da;" horiz-adv-x="682" 
d="M449 1512q19 92 97 155q80 64 171 64q88 0 138 -66q50 -65 32 -153q-20 -90 -96 -153t-166 -63q-91 0 -144 64q-51 64 -32 152zM551 1514q-11 -50 17 -85q28 -34 77 -34q46 0 87 35q43 36 53 84q10 45 -18 81q-26 37 -72 37q-51 0 -93 -36q-41 -35 -51 -82zM620 1296v0v0
z" />
    <glyph glyph-name="ogonek" unicode="&#x2db;" horiz-adv-x="682" 
d="M481 -385q-67 -31 -154 -31q-111 0 -164 55q-52 55 -32 147q18 86 143 165l76 49h146v0q-157 -77 -175 -160q-8 -39 15 -63q24 -24 63 -24q46 0 120 39zM415 0v0v0z" />
    <glyph glyph-name="tilde" unicode="&#x2dc;" horiz-adv-x="682" 
d="M246 1310q28 105 113 179q86 75 177 75q61 0 149 -37q89 -36 116 -36q76 0 117 84h134q-95 -250 -292 -250q-52 0 -147 36q-95 37 -125 37q-74 0 -116 -88h-126zM627 1296v0v0z" />
    <glyph glyph-name="hungarumlaut" unicode="&#x2dd;" horiz-adv-x="682" 
d="M243 1296l259 304h317l-369 -304h-207zM691 1296l259 304h317l-369 -304h-207zM569 1296v0v0z" />
    <glyph glyph-name="endash" unicode="&#x2013;" 
d="M158 746h1024l-47 -224h-1024z" />
    <glyph glyph-name="emdash" unicode="&#x2014;" horiz-adv-x="2048" 
d="M158 746h2048l-47 -224h-2048z" />
    <glyph glyph-name="quoteleft" unicode="&#x2018;" horiz-adv-x="569" 
d="M364 982l55 260q31 143 108 209q77 65 204 85v0l-20 -93v0q-135 -20 -165 -159l-7 -36h122l-57 -266h-240z" />
    <glyph glyph-name="quoteright" unicode="&#x2019;" horiz-adv-x="569" 
d="M731 1536l-55 -260q-31 -143 -108 -209q-77 -65 -204 -85v0l20 93v0q135 20 165 159l7 36h-122l57 266h240z" />
    <glyph glyph-name="quotesinglbase" unicode="&#x201a;" horiz-adv-x="569" 
d="M469 270l-55 -260q-31 -143 -108 -209q-77 -65 -204 -85v0l20 93v0q135 20 165 159l7 36h-122l57 266h240z" />
    <glyph glyph-name="quotedblleft" unicode="&#x201c;" 
d="M793 982l55 260q31 143 108 209q77 65 204 85v0l-20 -93v0q-135 -20 -165 -159l-7 -36h122l-57 -266h-240zM393 982l55 260q31 143 108 209q77 65 204 85v0l-20 -93v0q-135 -20 -165 -159l-7 -36h122l-57 -266h-240z" />
    <glyph glyph-name="quotedblright" unicode="&#x201d;" 
d="M760 1536l-55 -260q-31 -143 -108 -209q-77 -65 -204 -85v0l20 93v0q135 20 165 159l7 36h-122l57 266h240zM1160 1536l-55 -260q-31 -143 -108 -209q-77 -65 -204 -85v0l20 93v0q135 20 165 159l7 36h-122l57 266h240z" />
    <glyph glyph-name="quotedblbase" unicode="&#x201e;" 
d="M510 270l-55 -260q-31 -143 -108 -209q-77 -65 -204 -85v0l20 93v0q135 20 165 159l7 36h-122l57 266h240zM910 270l-55 -260q-31 -143 -108 -209q-77 -65 -204 -85v0l20 93v0q135 20 165 159l7 36h-122l57 266h240z" />
    <glyph glyph-name="dagger" unicode="&#x2020;" 
d="M312 1096h304l102 480h262l-102 -480h304l-49 -232h-304l-250 -1178h-262l250 1178h-304z" />
    <glyph glyph-name="daggerdbl" unicode="&#x2021;" 
d="M312 1096h304l102 480h262l-102 -480h304l-49 -232h-304l-101 -476h304l-49 -232h-304l-102 -480h-262l102 480h-304l49 232h304l101 476h-304z" />
    <glyph glyph-name="bullet" unicode="&#x2022;" horiz-adv-x="860" 
d="M212 773q34 159 168 270q135 111 297 111q159 0 247 -113q89 -112 56 -268q-34 -161 -172 -274q-137 -113 -297 -113t-247 113q-86 113 -52 274z" />
    <glyph glyph-name="ellipsis" unicode="&#x2026;" horiz-adv-x="2048" 
d="M264 270h270l-57 -270h-270zM952 270h270l-57 -270h-270zM1583 0l57 270h270l-57 -270h-270z" />
    <glyph glyph-name="perthousand" unicode="&#x2030;" horiz-adv-x="2275" 
d="M356 -31l1020 1559h143l-1020 -1559h-143zM960 375q46 218 131 299q86 82 264 82q155 0 219 -74q64 -73 16 -301q-43 -200 -128 -291q-84 -90 -268 -90t-230 89t-4 286zM1167 425l-20 -97q-24 -109 -2 -145q22 -35 81 -35q64 0 98 37q35 37 58 144l20 97q22 104 5 143
q-18 39 -81 39q-62 0 -99 -38t-60 -145zM1683 375q45 215 131 298t264 83q174 0 227 -80q54 -79 8 -295q-43 -200 -128 -291q-84 -90 -268 -90q-175 0 -227 84q-51 84 -7 291zM1890 425l-20 -97q-24 -109 -2 -145q22 -35 81 -35q64 0 98 37q35 37 58 144l20 97q22 104 5 143
q-18 39 -81 39q-62 0 -99 -38t-60 -145zM276 1115q45 209 133 295t263 86q161 0 221 -77q61 -77 14 -298q-43 -200 -128 -291q-84 -90 -268 -90t-230 89t-5 286zM484 1165l-21 -97q-23 -109 -1 -145q22 -35 81 -35q64 0 98 37q35 37 58 144l20 97q22 104 5 143
q-18 39 -81 39q-62 0 -99 -38t-60 -145z" />
    <glyph glyph-name="guilsinglleft" unicode="&#x2039;" horiz-adv-x="569" 
d="M583 909l-49 -232l-223 -163l155 -160l-49 -228l-259 288l44 207z" />
    <glyph glyph-name="guilsinglright" unicode="&#x203a;" horiz-adv-x="569" 
d="M158 126l49 232l223 163l-155 160l49 228l259 -288l-44 -207z" />
    <glyph glyph-name="foursuperior" unicode="&#x2074;" horiz-adv-x="614" 
d="M214 933l430 587h206l-124 -587h87l-29 -135h-87l-40 -190h-186l40 190h-326zM352 933v0h188l80 378v0z" />
    <glyph glyph-name="Euro" unicode="&#x20ac;" 
d="M676 966h304l-51 -134h-282l-23 -112v0h256l-51 -134h-234l-6 -30q-48 -225 -28 -294q20 -68 92 -68q60 0 95 57q36 57 66 199h264q-102 -481 -470 -481q-260 0 -316 139q-55 140 16 478h-148l51 134h126v0l23 112h-148l51 134h126q68 322 184 445q117 124 351 124
q196 0 265 -102q68 -101 28 -331h-264q44 208 -70 208q-83 0 -124 -69q-40 -69 -80 -259z" />
    <glyph glyph-name="trademark" unicode="&#x2122;" horiz-adv-x="1761" 
d="M389 704l143 673h-234l34 159h630l-34 -159h-234l-143 -673h-162zM872 704l177 832h264l63 -497v0l271 497h264l-177 -832h-162l146 686l-368 -686h-94l-76 686l-146 -686h-162z" />
    <glyph glyph-name="partialdiff" unicode="&#x2202;" horiz-adv-x="1012" 
d="M916 689q47 121 73 244q47 224 -17 366q-62 142 -226 142q-106 0 -243 -70l-57 104q156 57 280 57q250 0 355 -207t41 -508q-73 -344 -260 -603t-430 -259q-164 0 -251 116q-87 117 -52 283q39 183 185 329q147 146 316 146q170 0 286 -140zM885 616q-69 134 -193 134
q-118 0 -238 -126q-119 -126 -162 -327q-32 -150 8 -216q41 -65 117 -65q127 0 245 144q117 144 223 456z" />
    <glyph glyph-name="Delta" unicode="&#x2206;" horiz-adv-x="1253" 
d="M11 0l954 1407l278 -1407h-1232zM166 100v0h845v0l-196 955z" />
    <glyph glyph-name="summation" unicode="&#x2211;" horiz-adv-x="1229" 
d="M-137 -203l887 822l-515 932q153 -19 208 -19h1023l-55 -320h-40q-7 138 -63 183t-204 45h-543v0l406 -735l-745 -697v0h752q108 0 175 42t151 185h48q-111 -222 -184 -451q-37 8 -92 13q-54 6 -82 6h-1007q-40 0 -120 -6z" />
    <glyph glyph-name="minus" unicode="&#x2212;" 
d="M131 391l48 225h912l-48 -225h-912z" />
    <glyph glyph-name="fraction" unicode="&#x2215;" horiz-adv-x="342" 
d="M-352 0l1191 1504h152l-1191 -1504h-152z" />
    <glyph glyph-name="radical" unicode="&#x221a;" horiz-adv-x="1124" 
d="M1391 1886l68 -11l-722 -1948l-282 1025l-220 -94l-18 67l332 148l232 -824z" />
    <glyph glyph-name="notequal" unicode="&#x2260;" horiz-adv-x="1124" 
d="M207 824h549v0l112 176v0h225l-112 -176v0h282l-48 -225h-378v0l-112 -176v0h453l-48 -225h-549v0l-112 -176v0h-225l110 176v0h-280l48 225h378v0l107 176v0h-448z" />
    <glyph glyph-name="lessequal" unicode="&#x2264;" horiz-adv-x="1124" 
d="M1353 1407l-48 -229l-848 -341l705 -333l-49 -229l-925 464l43 204zM1096 194l-47 -225h-1024l47 225h1024z" />
    <glyph glyph-name="greaterequal" unicode="&#x2265;" horiz-adv-x="1124" 
d="M1118 194l-48 -225h-1024l48 225h1024zM1277 943l-43 -204l-1123 -464l49 229l846 333l-703 341l48 229z" />
    <glyph glyph-name="lozenge" unicode="&#x25ca;" horiz-adv-x="1012" 
d="M878 1520l242 -748l-564 -772h-120l-236 772l558 748h120zM796 1412l-477 -642l201 -662l479 662z" />
    <glyph glyph-name="unif001" unicode="&#xf001;" 
d="M273 1152h96l26 123q30 138 103 198q74 61 233 61h97l-45 -213q-36 12 -56 12q-53 0 -65 -54l-27 -127h112l-41 -195h-112l-203 -957h-266l203 957h-96zM897 1152h266l-244 -1152h-266zM979 1539h266l-51 -243h-266z" />
    <glyph glyph-name="unif002" unicode="&#xf002;" 
d="M273 1152h96l26 123q30 138 103 198q74 61 233 61h97l-45 -213q-28 12 -56 12q-53 0 -65 -54l-27 -127h112l-41 -195h-112l-203 -957h-266l203 957h-96zM637 0l326 1536h266l-326 -1536h-266z" />
    <glyph glyph-name="unif151" unicode="&#xf151;" horiz-adv-x="682" 
d="M621 1302h-130l51 240h240l-48 -227q-51 -238 -297 -269v0l17 81v0q55 4 101 45q47 42 61 104z" />
    <glyph glyph-name="commaaccent" unicode="&#xf170;" horiz-adv-x="682" 
d="M153 -336l51 240h240l-48 -227q-51 -238 -298 -269v0l18 81v0q55 4 101 45q47 42 60 104l6 26h-130zM345 0v0v0z" />
    <glyph glyph-name="unif171" unicode="&#xf171;" horiz-adv-x="682" 
d="M781 1536l-51 -240h-240l48 228q50 237 297 268v0l-17 -81v0q-56 -5 -103 -47q-46 -41 -59 -103l-5 -25h130zM611 1296v0v0z" />
    <glyph glyph-name="Scommaaccent" unicode="&#xf24d;" horiz-adv-x="1139" 
d="M227 544h287v0l-19 -89q-54 -255 128 -255q163 0 201 176q20 95 -27 155t-190 164q-148 108 -214 214t-34 254q85 405 537 405q241 0 317 -118q78 -117 22 -378v0h-278v0l11 51q45 213 -121 213q-156 0 -186 -144q-17 -79 19 -125q38 -45 193 -166q168 -127 228 -226
q61 -98 27 -258q-44 -211 -189 -330q-144 -119 -366 -119q-468 0 -371 456l25 120v0zM913 1664v0v0zM581 0v0v0zM389 -336l51 240h240l-48 -227q-51 -238 -298 -269v0l18 81v0q55 4 101 45q47 42 60 104l6 26h-130zM581 0v0v0z" />
    <glyph glyph-name="scommaaccent" unicode="&#xf24e;" horiz-adv-x="909" 
d="M146 386h266q-12 -38 -19 -71q-30 -141 83 -141q117 0 139 102q12 61 -22 94q-33 33 -89 78l-127 106q-167 137 -121 352q59 276 446 276q193 0 264 -94t29 -290v0h-266v0q26 122 -1 151q-26 29 -82 29q-109 0 -129 -95q-9 -44 12 -75q22 -30 75 -73l165 -132
q158 -127 121 -301q-70 -332 -447 -332q-389 0 -312 364q7 34 15 52zM708 1278v0v0zM440 0v0v0zM248 -336l51 240h240l-48 -227q-51 -238 -298 -269v0l18 81v0q55 4 101 45q47 42 60 104l6 26h-130zM440 0v0v0z" />
    <glyph glyph-name="fi" unicode="&#xfb01;" 
d="M273 1152h96l26 123q30 138 103 198q74 61 233 61h97l-45 -213q-36 12 -56 12q-53 0 -65 -54l-27 -127h112l-41 -195h-112l-203 -957h-266l203 957h-96zM897 1152h266l-244 -1152h-266zM979 1539h266l-51 -243h-266z" />
    <glyph glyph-name="fl" unicode="&#xfb02;" 
d="M273 1152h96l26 123q30 138 103 198q74 61 233 61h97l-45 -213q-28 12 -56 12q-53 0 -65 -54l-27 -127h112l-41 -195h-112l-203 -957h-266l203 957h-96zM637 0l326 1536h266l-326 -1536h-266z" />
  </font>
</defs>
</svg>
